<svg viewBox="0 0 212 212" fill="none" xmlns="http://www.w3.org/2000/svg"><mask id="a" style="mask-type:alpha" maskUnits="userSpaceOnUse" x="0" y="0" width="212" height="212"><path fill="#fff" d="M0 0h212v212H0z"/></mask><g mask="url(#a)"><path fill-rule="evenodd" clip-rule="evenodd" d="M59.415 68.985c6.046-5.966 6.08-15.133 4.444-23.087-.276-1.327-.37-2.76-1.205-3.816-.835-1.056-2.455-1.611-3.553-.848-.911.636-1.149 1.866-1.539 2.913a7.95 7.95 0 0 1-2.62 3.528c-.776.585-1.78 1.034-2.701.716-1.272-.424-1.67-2.005-1.887-3.337l-1.22-7.433a12.658 12.658 0 0 0-1.078-3.88c-.627-1.186-1.742-2.204-3.065-2.34-1.323-.135-2.76.848-2.807 2.201.044.559.126 1.114.246 1.662.055.56-.098 1.213-.594 1.454-.496.242-1.098-.038-1.564-.36-1.599-1.107-2.824-2.675-3.986-4.24-1.162-1.565-2.31-3.184-3.816-4.435-1.505-1.25-3.392-2.12-5.334-1.895-1.942.224-3.744 1.734-3.905 3.684-.161 1.95 1.272 3.668 2.7 4.982a30.208 30.208 0 0 0 7.192 4.821c.496.173.924.5 1.221.933.424.848-.246 1.861-1.073 2.298-.932.5-2.022.58-3.04.882-1.017.301-2.056.946-2.28 1.993-.315 1.45 1.063 2.68 2.34 3.417a25.73 25.73 0 0 0 8.259 3.057c1.039.191 2.12.327 3.023.878.903.551 1.586 1.666 1.272 2.684-.314 1.017-1.488 1.526-2.544 1.51-1.056-.018-2.069-.425-3.104-.616-1.946-.377-4.278.153-5.18 1.93a4.265 4.265 0 0 0 .19 3.794 9.803 9.803 0 0 0 2.561 2.939 25.945 25.945 0 0 0 12.215 5.8c4.482.742 8.48.47 12.42-1.79" fill="#EBEBEB"/><path fill-rule="evenodd" clip-rule="evenodd" d="M24.85 27.314c.046.04.096.076.149.106l.454.284c.402.246.992.615 1.738 1.107a50.176 50.176 0 0 1 6.012 4.609c1.196 1.06 2.464 2.277 3.816 3.612a119.668 119.668 0 0 1 4.181 4.333 61.85 61.85 0 0 1 4.24 5.118c.683.929 1.323 1.912 1.972 2.917l1.971 3.053a123.252 123.252 0 0 1 6.907 11.995 60.024 60.024 0 0 1 4.075 10.52 43.913 43.913 0 0 1 1.407 7.479c.081.894.132 1.594.149 2.069 0 .225.021.403.03.538a1.26 1.26 0 0 0 0 .183.882.882 0 0 0 0-.183v-.542c0-.475-.039-1.175-.102-2.074a42.12 42.12 0 0 0-1.336-7.517 59.057 59.057 0 0 0-4.04-10.575 120.354 120.354 0 0 0-6.916-12.007l-1.971-3.053c-.654-1-1.298-1.993-1.99-2.926a58.553 58.553 0 0 0-4.252-5.147 119.406 119.406 0 0 0-4.202-4.325c-1.34-1.323-2.616-2.544-3.816-3.6a48.34 48.34 0 0 0-6.08-4.562c-.759-.48-1.357-.848-1.768-1.064l-.462-.263a1.182 1.182 0 0 0-.165-.085Z" fill="#E0E0E0"/><path fill-rule="evenodd" clip-rule="evenodd" d="M45.55 46.339c.03-.194.04-.39.03-.585v-1.607c-.038-1.353-.153-3.222-.288-5.283-.136-2.06-.23-3.926-.246-5.279v-1.598a2.697 2.697 0 0 0-.026-.59c-.045.192-.07.388-.072.585-.034.378-.055.925-.068 1.603-.025 1.357.034 3.23.174 5.296l.36 5.274c.043.636.073 1.17.102 1.599-.014.196-.003.392.034.585Z" fill="#E0E0E0"/><path fill-rule="evenodd" clip-rule="evenodd" d="M27.925 46.068c.232.01.465-.001.695-.034a51.69 51.69 0 0 1 1.887-.136 82.796 82.796 0 0 1 6.233-.115 89.31 89.31 0 0 1 6.232.323c.793.068 1.438.14 1.883.186.23.038.463.053.695.047a3.817 3.817 0 0 0-.682-.144 30.455 30.455 0 0 0-1.879-.263c-1.594-.19-3.816-.356-6.245-.399a60.964 60.964 0 0 0-6.25.187c-.797.068-1.442.148-1.883.216a3.741 3.741 0 0 0-.686.132ZM56.23 64.045a.926.926 0 0 0 .081-.229c.051-.178.11-.398.187-.665.161-.581.369-1.43.61-2.477.492-2.098 1.078-5.016 1.697-8.242.619-3.227 1.157-6.152 1.602-8.255.22-1.022.403-1.866.535-2.49.059-.27.105-.495.144-.682a.771.771 0 0 0 .03-.237c-.035.073-.062.15-.081.229-.051.178-.11.398-.187.665-.157.581-.364 1.425-.61 2.476-.492 2.095-1.077 5.016-1.696 8.243-.62 3.227-1.158 6.131-1.603 8.251-.22 1.022-.399 1.866-.534 2.489l-.14.678a.946.946 0 0 0-.034.246ZM32.288 60.632c.078.027.159.046.241.055l.696.106 2.544.373c2.166.314 5.151.785 8.45 1.306 3.299.522 6.292.967 8.48 1.234a82.99 82.99 0 0 0 2.574.293l.695.025a.844.844 0 0 0 .246 0 1.119 1.119 0 0 0-.242-.055l-.695-.106-2.544-.373a743.41 743.41 0 0 1-8.45-1.306c-3.3-.522-6.293-.967-8.48-1.238-1.09-.132-1.968-.233-2.578-.293l-.692-.021a.851.851 0 0 0-.245 0ZM192.882 46.381s-4.329-2.12-7.984 8.056c-3.655 10.176-4.8 15.909-4.8 15.909s-1.03 2.162-2.574 1.03c-1.543-1.132-3.892-4.605-6.143-3.642-2.337 1-2.79 3.816-1.823 7.721.966 3.905 2.768 12.567 2.929 13.352.162.784-.144 1.967-1.318 1.365-1.175-.602-8.256-6.729-10.961-3.193-2.705 3.537 1.777 13.992 2.248 15.15.47 1.157.296 1.696-.234 2.061-.53.364-2.713-1.917-4.799-3.575-2.086-1.658-4.8-3.218-6.186-1.047-1.387 2.171-.882 10.384 8.552 22.633l4.723 5.368 7.093-1.302c15.006-3.714 20.518-9.824 20.776-12.389.259-2.565-2.828-3.032-5.49-3.032-2.663 0-5.801.424-5.987-.19-.187-.615.021-1.145 1.102-1.756 1.081-.61 11.109-6.008 11.194-10.46.085-4.452-9.273-4.066-10.566-4.325-1.294-.258-.785-1.382-.183-1.886.602-.505 7.412-6.165 10.6-8.629 3.189-2.463 4.584-4.94 3.392-7.174-1.161-2.158-5.164-.907-7.072-.98-1.908-.072-1.374-2.408-1.374-2.408s2.68-5.202 6.148-15.438c3.469-10.235-1.369-11.257-1.369-11.257" fill="#E0E0E0"/><path fill-rule="evenodd" clip-rule="evenodd" d="M189.591 55.48s0 .077-.063.217c-.064.14-.115.364-.204.636-.182.56-.453 1.378-.801 2.425-.695 2.12-1.73 5.143-3.019 8.904-2.578 7.505-6.228 17.842-10.29 29.256-4.062 11.414-7.734 21.713-10.354 29.205-1.302 3.74-2.358 6.784-3.087 8.874l-.848 2.413c-.098.267-.17.475-.225.623-.055.149-.08.212-.08.212s0-.076.059-.216.119-.365.203-.636c.187-.564.458-1.378.802-2.425a828 828 0 0 1 3.023-8.904c2.578-7.505 6.224-17.842 10.29-29.256 4.067-11.414 7.738-21.73 10.355-29.222 1.301-3.74 2.353-6.784 3.086-8.875.365-1.038.645-1.853.848-2.412.098-.267.174-.475.225-.624.051-.148.08-.195.08-.195Z" fill="#EBEBEB"/><path fill-rule="evenodd" clip-rule="evenodd" d="M174.476 72.703c.101.141.182.295.242.458.144.301.339.746.572 1.272a95.564 95.564 0 0 1 1.696 4.333l1.62 4.368c.195.521.364.962.496 1.318.072.158.128.323.165.492a2.473 2.473 0 0 1-.246-.458 36.08 36.08 0 0 1-.564-1.297c-.458-1.103-1.043-2.642-1.696-4.346-.653-1.705-1.208-3.193-1.649-4.35l-.505-1.32a2.65 2.65 0 0 1-.131-.47ZM179.954 85.008c-.025-.055 3.078-1.446 6.932-3.104 3.855-1.658 6.996-2.968 7.022-2.896.025.072-3.078 1.446-6.932 3.104-3.855 1.658-6.996 2.955-7.022 2.896ZM172.92 102.239c.17-.047.345-.077.521-.089l1.434-.178c1.204-.148 2.87-.365 4.697-.67 1.828-.305 3.477-.627 4.664-.878l1.412-.292a2.8 2.8 0 0 1 .522-.085 2.154 2.154 0 0 1-.5.17c-.331.093-.806.22-1.4.36a63.85 63.85 0 0 1-4.664.946 67.624 67.624 0 0 1-4.723.606c-.606.055-1.098.093-1.437.106a2.313 2.313 0 0 1-.526.004ZM165.517 92.199c.123.11.233.232.331.364l.848 1.04c.695.885 1.369 2.467 2.679 3.48a274.797 274.797 0 0 1 2.625 3.524l.776 1.085c.104.13.191.272.258.424a2.21 2.21 0 0 1-.326-.364c-.229-.285-.505-.632-.848-1.039-.695-.886-1.641-2.12-2.676-3.486a255.17 255.17 0 0 1-2.628-3.519l-.772-1.094a2.08 2.08 0 0 1-.267-.415ZM157.376 106.623c.154.145.296.303.424.471l1.073 1.327c.894 1.128 2.12 2.697 3.468 4.435a388.057 388.057 0 0 1 3.413 4.478l1.018 1.373c.131.164.247.338.348.522a3.157 3.157 0 0 1-.424-.471l-1.073-1.31a432.856 432.856 0 0 1-3.468-4.439c-1.349-1.743-2.544-3.32-3.418-4.473l-1.009-1.391a3.227 3.227 0 0 1-.352-.522ZM166.963 118.86c.215-.06.435-.104.657-.132l1.806-.288a186.16 186.16 0 0 0 5.936-1.043c2.311-.449 4.393-.903 5.898-1.246l1.785-.403c.215-.062.435-.103.657-.123a4.872 4.872 0 0 1-.636.208 64.4 64.4 0 0 1-1.768.47c-1.497.382-3.578.869-5.893 1.315-2.316.445-4.423.771-5.936.979-.768.102-1.387.174-1.819.22a3.515 3.515 0 0 1-.687.043Z" fill="#EBEBEB"/><path fill-rule="evenodd" clip-rule="evenodd" d="M194.921 192.174c0 .122-41.263.212-92.156.212-50.893 0-92.165-.082-92.165-.212 0-.131 41.26-.212 92.169-.212 50.91 0 92.152.106 92.152.212Z" fill="#263238"/><path fill="#F5F5F5" d="M59.343 27.78h108.031v135.527H59.343z"/><path fill-rule="evenodd" clip-rule="evenodd" d="m59.36 27.78 108.031-.093h.089V163.414H59.241v-.098c.06-80.534.098-134.658.098-135.523l.102 135.523-.102-.097H167.37l-.111.11V27.819l.094.089L59.36 27.78Z" fill="#263238"/><path fill-rule="evenodd" clip-rule="evenodd" d="M100.963 38.525h1.085v4.922h3.053v.916h-4.138v-5.838ZM105.449 42.137a2.373 2.373 0 1 1 2.37 2.285 2.244 2.244 0 0 1-2.37-2.285Zm3.697 0a1.323 1.323 0 1 0-1.327 1.395 1.293 1.293 0 0 0 1.327-1.395ZM115.616 39.911v3.761c0 1.616-.848 2.353-2.404 2.353a3.55 3.55 0 0 1-2.167-.636l.467-.784a2.687 2.687 0 0 0 1.645.534c.984 0 1.416-.45 1.416-1.353v-.233c-.39.402-.933.619-1.492.594a2.154 2.154 0 1 1 0-4.304 1.925 1.925 0 0 1 1.543.645v-.594l.992.017Zm-1.026 2.095a1.356 1.356 0 1 0-1.352 1.272 1.273 1.273 0 0 0 1.352-1.272ZM116.842 38.55a.632.632 0 0 1 .665-.623.622.622 0 0 1 .67.598.67.67 0 0 1-1.335.025Zm.14 1.361h1.043v4.452h-1.043v-4.452ZM123.778 41.81v2.545h-1.043v-2.417c0-.793-.39-1.175-1.056-1.175-.742 0-1.246.45-1.246 1.34v2.252h-1.039V39.91h.992v.577c.39-.432.954-.665 1.535-.632 1.064 0 1.857.615 1.857 1.955Z" fill="#000"/><path fill-rule="evenodd" clip-rule="evenodd" d="M131.347 35.519c.279.52.335 1.132.157 1.696a3.866 3.866 0 0 1-.912 1.5 6.785 6.785 0 0 1-3.044 1.696c-.28-1.23.398-2.544.784-3.163.606-1.005 2.319-2.45 3.01-1.73M127.344 42.565a1.86 1.86 0 0 1 1.552-1.077 2.495 2.495 0 0 1 1.81.62c.246.18.4.459.424.763a.813.813 0 0 1-.466.661 1.697 1.697 0 0 1-.848.123c-.971-.072-1.895-.314-2.48-1.09" fill="#1A4F8B"/><path fill-rule="evenodd" clip-rule="evenodd" d="M124.898 44.007c.159-.193.34-.368.538-.521.209-.177.438-.328.683-.45.293-.162.598-.304.911-.424a3.729 3.729 0 0 1 1.802-.208c.183.027.362.074.535.14.065.02.127.052.182.094 0 0-.276-.094-.729-.145a4.022 4.022 0 0 0-1.747.238c-.307.116-.607.249-.899.398a3.744 3.744 0 0 0-.683.424 5.427 5.427 0 0 1-.593.454Z" fill="#263238"/><path fill-rule="evenodd" clip-rule="evenodd" d="M130.142 36.735a2.379 2.379 0 0 1-.195.331c-.131.204-.322.5-.563.848-.484.725-1.166 1.717-1.942 2.798a70.67 70.67 0 0 1-2.057 2.723c-.271.343-.496.614-.653.8-.077.1-.162.194-.254.28.061-.11.134-.213.216-.309l.619-.848c.526-.695 1.247-1.658 2.023-2.739l1.984-2.739.602-.848c.065-.105.139-.204.22-.297Z" fill="#263238"/><path fill-rule="evenodd" clip-rule="evenodd" d="M125.928 42.07c.45-1.333.233-2.8-.585-3.944-.208-.284-.526-.568-.848-.483-.322.084-.492.487-.534.848a3.722 3.722 0 0 0 1.92 3.663" fill="#1A4F8B"/><path fill-rule="evenodd" clip-rule="evenodd" d="M125.08 39.118s.047.055.114.166a6.1 6.1 0 0 1 .255.479c.264.54.426 1.126.479 1.725.022.334-.01.669-.093.993a2.862 2.862 0 0 1-.653 1.191.847.847 0 0 1-.14.14c-.021 0 .165-.233.386-.628a3.23 3.23 0 0 0 .284-.729c.075-.312.102-.634.08-.954a5.545 5.545 0 0 0-.449-1.696 7.338 7.338 0 0 1-.263-.687ZM70.494 58.088v.31h-2.412v-3.414h2.34v.314h-1.98v1.213h1.764v.305h-1.764v1.272h2.052ZM75.502 56.9v1.49h-.344v-1.455c0-.539-.275-.819-.738-.819a.848.848 0 0 0-.848.929v1.344h-.343v-1.454c0-.539-.276-.819-.742-.819a.848.848 0 0 0-.848.929v1.344h-.343v-2.565h.33v.47c.2-.323.562-.51.941-.487a.92.92 0 0 1 .912.538 1.12 1.12 0 0 1 1.014-.538.967.967 0 0 1 1.009 1.094ZM78.38 56.816v1.59h-.334v-.398a.963.963 0 0 1-.882.423c-.581 0-.937-.3-.937-.746 0-.445.254-.725.992-.725h.797v-.157c0-.424-.25-.678-.73-.678a1.327 1.327 0 0 0-.847.301l-.157-.259c.298-.23.666-.351 1.043-.343a.912.912 0 0 1 1.055.992Zm-.364.806v-.424h-.806c-.496 0-.657.195-.657.458 0 .262.237.483.649.483a.822.822 0 0 0 .814-.517ZM79.241 55.014a.246.246 0 0 1 .255-.242.242.242 0 0 1 .25.238.25.25 0 0 1-.25.254.25.25 0 0 1-.255-.25Zm.077.81h.424v2.565h-.424v-2.565ZM80.632 54.772h.424v3.617h-.414l-.01-3.617ZM85.156 56.816v1.59h-.33v-.398a.967.967 0 0 1-.887.423c-.576 0-.933-.3-.933-.746 0-.445.25-.725.988-.725h.806v-.157c0-.424-.246-.678-.725-.678-.31-.002-.61.104-.848.3l-.157-.258a1.64 1.64 0 0 1 1.043-.343.911.911 0 0 1 1.043.992Zm-.356.806v-.424h-.806c-.496 0-.657.195-.657.458 0 .262.238.483.649.483a.823.823 0 0 0 .814-.517ZM88.446 54.772v3.617h-.33v-.505a1.11 1.11 0 0 1-.993.53 1.306 1.306 0 0 1 0-2.607c.392-.014.763.177.98.505v-1.54h.343Zm-.339 2.337a.954.954 0 1 0-.954 1 .941.941 0 0 0 .954-1ZM91.754 54.772v3.617h-.331v-.505c-.212.342-.59.544-.992.53a1.306 1.306 0 0 1 0-2.607c.39-.015.76.177.975.505v-1.54h.347Zm-.344 2.337a.954.954 0 1 0-.95 1 .937.937 0 0 0 .95-1ZM94.01 55.807v.335h-.081a.848.848 0 0 0-.848.945v1.306h-.348v-2.565h.335v.505a.962.962 0 0 1 .941-.526ZM96.841 57.215h-2.145a.95.95 0 0 0 1.01.894c.3.009.588-.115.788-.339l.195.225a1.357 1.357 0 0 1-2.336-.886 1.251 1.251 0 1 1 2.497 0c0 .03-.008.067-.008.106Zm-2.145-.26h1.819a.912.912 0 0 0-1.819 0ZM97.198 58.088l.157-.271c.265.19.584.29.911.288.488 0 .687-.165.687-.424 0-.67-1.662-.144-1.662-1.158 0-.424.36-.729 1.013-.729.32-.008.634.075.908.238l-.149.28a1.323 1.323 0 0 0-.759-.221c-.462 0-.665.178-.665.424 0 .691 1.662.17 1.662 1.157 0 .425-.39.73-1.06.73a1.696 1.696 0 0 1-1.043-.314ZM99.58 58.088l.157-.271c.267.189.585.29.912.288.488 0 .691-.165.691-.424 0-.67-1.666-.144-1.666-1.157 0-.425.36-.73 1.017-.73.319-.006.633.076.908.238l-.153.28a1.305 1.305 0 0 0-.755-.221c-.466 0-.669.178-.669.424 0 .691 1.662.17 1.662 1.157 0 .425-.39.73-1.056.73a1.717 1.717 0 0 1-1.047-.314Z" fill="#263238"/><path fill-rule="evenodd" clip-rule="evenodd" d="M74.429 67.526h-2.145a.95.95 0 0 0 1.009.89c.298.011.585-.112.784-.334l.195.224a1.357 1.357 0 0 1-2.336-.886 1.238 1.238 0 0 1 1.272-1.306 1.226 1.226 0 0 1 1.242 1.306.215.215 0 0 0-.021.106Zm-2.145-.258h1.818a.911.911 0 0 0-1.819 0ZM76.702 68.688l-.806-1.06-.827 1.06h-.39l1.013-1.314-.966-1.272h.39l.772 1.004.771-.962h.377l-.962 1.272 1.022 1.314-.394-.042ZM79.56 67.11v1.578h-.331v-.398a.971.971 0 0 1-.887.423c-.58 0-.932-.3-.932-.746 0-.445.25-.725.987-.725h.815v-.157c0-.424-.25-.678-.725-.678-.31-.003-.61.104-.848.301l-.153-.259a1.62 1.62 0 0 1 1.043-.347.916.916 0 0 1 1.03 1.009Zm-.348.82v-.425h-.806c-.496 0-.657.195-.657.462s.237.484.648.484a.818.818 0 0 0 .815-.522ZM84.732 67.213v1.475h-.356v-1.442c0-.538-.276-.818-.738-.818a.848.848 0 0 0-.848.929v1.331h-.343v-1.442c0-.538-.276-.818-.742-.818a.848.848 0 0 0-.848.929v1.331h-.344v-2.544h.331v.466c.201-.322.562-.509.941-.487a.924.924 0 0 1 .912.543 1.12 1.12 0 0 1 1.013-.543.971.971 0 0 1 1.022 1.09ZM88.272 67.416A1.242 1.242 0 0 1 87 68.722a1.119 1.119 0 0 1-.975-.509v1.429h-.343v-3.498h.33v.509c.21-.342.588-.545.989-.53a1.247 1.247 0 0 1 1.271 1.293Zm-.347 0a.958.958 0 1 0-.954.996.945.945 0 0 0 .954-.996ZM88.976 65.084h.424v3.604h-.424v-3.604ZM92.525 67.526h-2.15a.954.954 0 0 0 1.014.89c.298.01.585-.112.784-.334l.195.224a1.357 1.357 0 0 1-2.336-.886 1.25 1.25 0 1 1 2.498 0c0 .03-.005.068-.005.106Zm-2.15-.258H92.2a.912.912 0 0 0-1.823 0ZM97.541 67.416c0 .848-.305 1.319-.81 1.319a.522.522 0 0 1-.55-.53 1.086 1.086 0 0 1-.976.53 1.272 1.272 0 0 1 0-2.519c.39-.014.76.182.967.513v-.5h.318v1.849c0 .27.135.368.3.368.302 0 .497-.373.497-1.034a1.857 1.857 0 0 0-2.002-1.904 1.963 1.963 0 1 0 0 3.922c.325 0 .646-.073.938-.216l.08.237c-.318.15-.666.227-1.017.225a2.209 2.209 0 1 1 0-4.418 2.12 2.12 0 0 1 2.255 2.158Zm-1.365.055a.929.929 0 1 0-.929.98.907.907 0 0 0 .929-.988v.008ZM100.649 66.144V68.4c0 .882-.424 1.272-1.272 1.272a1.79 1.79 0 0 1-1.196-.395l.174-.263c.284.236.644.361 1.014.352.648 0 .945-.3.945-.932v-.327a1.157 1.157 0 0 1-1 .496 1.246 1.246 0 1 1 0-2.489c.404-.017.788.177 1.013.513v-.483h.322Zm-.339 1.221a.975.975 0 1 0-.975.941.917.917 0 0 0 .975-.95v.01ZM105.852 67.213v1.475h-.348v-1.442c0-.538-.271-.818-.738-.818a.85.85 0 0 0-.848.929v1.331h-.348v-1.442c0-.538-.271-.818-.742-.818a.85.85 0 0 0-.848.929v1.331h-.347v-2.544h.33v.466c.202-.321.563-.508.942-.487a.929.929 0 0 1 .916.543 1.115 1.115 0 0 1 1.013-.543.973.973 0 0 1 1.018 1.09ZM108.726 67.11v1.578h-.33v-.398a.963.963 0 0 1-.882.423c-.581 0-.937-.3-.937-.746 0-.445.25-.725.988-.725h.814v-.157c0-.424-.246-.678-.725-.678a1.291 1.291 0 0 0-.848.301l-.157-.259a1.619 1.619 0 0 1 1.043-.347.917.917 0 0 1 1.034 1.009Zm-.347.82v-.425h-.806c-.496 0-.657.195-.657.462s.241.484.649.484a.818.818 0 0 0 .814-.522ZM109.587 65.326a.25.25 0 0 1 .254-.242.247.247 0 0 1 .255.237.251.251 0 0 1-.255.255.254.254 0 0 1-.254-.25Zm.08.81h.424v2.552h-.424v-2.553ZM110.978 65.084h.424v3.604h-.424v-3.604ZM112.063 68.46a.26.26 0 0 1 .259-.263.262.262 0 0 1 .267.262c0 .148-.12.267-.267.267a.264.264 0 0 1-.259-.267ZM112.992 67.416a1.27 1.27 0 0 1 1.323-1.306 1.13 1.13 0 0 1 1.004.509l-.258.178a.877.877 0 0 0-.746-.382 1 1 0 0 0 0 1.997.847.847 0 0 0 .746-.373l.258.174a1.13 1.13 0 0 1-1.004.509 1.27 1.27 0 0 1-1.323-1.306ZM115.693 67.416a1.306 1.306 0 1 1 1.305 1.306 1.27 1.27 0 0 1-1.305-1.306Zm2.259 0a.954.954 0 1 0-.954.996.936.936 0 0 0 .954-.996ZM123.244 67.213v1.475h-.348v-1.442c0-.538-.271-.818-.737-.818a.846.846 0 0 0-.848.929v1.331h-.348v-1.442c0-.538-.271-.818-.742-.818a.846.846 0 0 0-.848.929v1.331h-.348v-2.544h.331v.466c.202-.321.562-.508.941-.487a.921.921 0 0 1 .912.543 1.127 1.127 0 0 1 1.017-.543.97.97 0 0 1 1.018 1.09Z" fill="#E0E0E0"/><path fill-rule="evenodd" clip-rule="evenodd" d="M158.5 73.093a.751.751 0 0 0 .47-.199c.31-.242.178-.814.204-1.484 0-1.365 0-3.392-.021-5.961v-2.595a2.296 2.296 0 0 0-.034-.543.653.653 0 0 0-.344-.382 1.242 1.242 0 0 0-.555-.059h-17.622l-72.368.03c-.19 0-.367.09-.48.242a.823.823 0 0 0-.114.568v9.769c.03.183.147.341.314.424.08.041.169.063.259.063H95.98l32.533.026 21.934.033 5.961.022h2.082-2.082l-5.961.02-21.934.035-32.533.025H68.209a.806.806 0 0 1-.789-.661c-.03-.25 0-.424 0-.662v-9.052a3.417 3.417 0 0 1 0-.348.81.81 0 0 1 .801-.683l72.369.035h17.621c.202-.023.407.002.598.072a.738.738 0 0 1 .394.424c.038.188.051.38.039.572v2.595c0 2.586 0 4.596-.022 5.961v.904a.732.732 0 0 1-.22.644.646.646 0 0 1-.5.165Z" fill="#E0E0E0"/><path fill-rule="evenodd" clip-rule="evenodd" d="M70.753 81.764c0 .725-.526 1.166-1.395 1.166h-.916v1.077h-.36v-3.392h1.272c.873-.021 1.399.416 1.399 1.15Zm-.36 0c0-.547-.361-.848-1.044-.848h-.907v1.696h.907c.683 0 1.035-.314 1.035-.848h.008ZM73.373 82.417v1.59h-.335v-.398a.963.963 0 0 1-.882.424c-.58 0-.937-.306-.937-.747 0-.44.255-.729.992-.729h.814V82.4c0-.424-.25-.674-.729-.674-.31-.004-.61.103-.848.301l-.157-.259a1.628 1.628 0 0 1 1.043-.347.912.912 0 0 1 1.04.996Zm-.348.818v-.424h-.805c-.496 0-.657.195-.657.458s.237.484.648.484a.814.814 0 0 0 .814-.517ZM73.954 83.715l.157-.272c.267.187.586.286.911.284.488 0 .687-.165.687-.424 0-.665-1.662-.14-1.662-1.153 0-.424.36-.734 1.014-.734.319-.006.633.078.907.242l-.148.276a1.31 1.31 0 0 0-.76-.22c-.462 0-.665.182-.665.423 0 .696 1.662.174 1.662 1.158 0 .424-.39.733-1.06.733a1.696 1.696 0 0 1-1.043-.313ZM76.341 83.715l.153-.272c.269.187.588.286.916.284.487 0 .687-.165.687-.424 0-.665-1.667-.14-1.667-1.153 0-.424.365-.734 1.018-.734.319-.004.633.08.907.242l-.153.276a1.306 1.306 0 0 0-.754-.22c-.467 0-.67.182-.67.423 0 .696 1.662.174 1.662 1.158 0 .424-.39.733-1.056.733a1.697 1.697 0 0 1-1.043-.313ZM82.799 81.442l-.971 2.544H81.5l-.81-2.12-.81 2.12h-.326l-.967-2.544h.331l.806 2.18.822-2.18h.297l.823 2.18.814-2.18h.318ZM82.985 82.722a1.306 1.306 0 1 1 1.306 1.31 1.272 1.272 0 0 1-1.306-1.31Zm2.26 0a.954.954 0 1 0-.954 1.001.938.938 0 0 0 .954-1ZM87.594 81.408v.34h-.085a.848.848 0 0 0-.848.949v1.306h-.347v-2.544h.33v.5a.971.971 0 0 1 .95-.551ZM90.532 80.386v3.621h-.33v-.509a1.107 1.107 0 0 1-.988.535 1.306 1.306 0 1 1 0-2.612c.391-.011.76.181.975.508v-1.543h.343Zm-.339 2.336a.954.954 0 1 0-.95 1.001.937.937 0 0 0 .95-1Z" fill="#263238"/><path fill-rule="evenodd" clip-rule="evenodd" d="M74.683 94.327v.314h-2.417v-3.417h2.358v.313H72.63v1.217h1.764v.306h-1.764v1.272l2.052-.005ZM77.817 93.153v1.488h-.344v-1.454a.716.716 0 0 0-.772-.819.848.848 0 0 0-.898.925v1.348h-.331v-2.565h.33v.47c.212-.328.586-.517.976-.491a.98.98 0 0 1 1.039 1.098ZM80.11 94.484a.822.822 0 0 1-.542.183.679.679 0 0 1-.75-.747v-1.552h-.459v-.292h.458v-.564h.348v.564h.78v.292h-.78V93.9a.424.424 0 0 0 .424.466.564.564 0 0 0 .382-.131l.14.25ZM82.88 93.462h-2.146a.95.95 0 0 0 1.009.895c.298.01.586-.112.784-.335l.195.225a1.357 1.357 0 0 1-2.336-.89 1.234 1.234 0 0 1 1.272-1.302 1.222 1.222 0 0 1 1.242 1.301.217.217 0 0 0-.02.106Zm-2.146-.254h1.819a.911.911 0 0 0-1.82 0ZM84.885 92.055v.335H84.8a.848.848 0 0 0-.848.945v1.31h-.343V92.08h.33v.5a.97.97 0 0 1 .946-.525ZM89.421 93.356a1.247 1.247 0 0 1-1.272 1.31 1.12 1.12 0 0 1-.975-.508v1.429h-.347v-3.511h.33v.504c.214-.339.592-.539.993-.525a1.242 1.242 0 0 1 1.271 1.301Zm-.343 0a.958.958 0 1 0-1.912 0 .958.958 0 1 0 1.912 0ZM92.05 93.051v1.59h-.33v-.424a.958.958 0 0 1-.882.424c-.581 0-.937-.305-.937-.746s.254-.73.988-.73h.814v-.156c0-.424-.246-.679-.725-.679-.31-.003-.611.106-.848.305l-.157-.258a1.62 1.62 0 0 1 1.043-.348.912.912 0 0 1 1.034 1.022Zm-.347.818v-.424H90.9c-.5 0-.661.195-.661.458s.242.484.649.484a.822.822 0 0 0 .814-.518ZM92.635 94.349l.157-.276c.266.19.585.291.912.288.488 0 .687-.165.687-.424 0-.665-1.662-.14-1.662-1.153 0-.424.36-.734 1.013-.734.318-.004.632.079.907.238l-.152.28a1.306 1.306 0 0 0-.755-.22c-.462 0-.67.181-.67.423 0 .696 1.666.174 1.666 1.158 0 .445-.39.733-1.06.733-.372.011-.738-.1-1.043-.314ZM95.018 94.349l.157-.276c.266.19.585.291.912.288.487 0 .687-.165.687-.424 0-.665-1.662-.14-1.662-1.153 0-.424.36-.734 1.013-.734.318-.005.632.077.907.238l-.148.28a1.323 1.323 0 0 0-.76-.22c-.461 0-.665.181-.665.423 0 .696 1.662.174 1.662 1.158 0 .445-.39.733-1.06.733-.372.01-.738-.1-1.043-.314ZM101.476 92.076l-.988 2.565h-.327l-.81-2.12-.81 2.12h-.326l-.966-2.565h.335l.8 2.18.828-2.18h.296l.819 2.18.814-2.18h.335ZM101.667 93.356a1.305 1.305 0 1 1 1.306 1.31 1.273 1.273 0 0 1-1.306-1.31Zm2.255 0a.954.954 0 1 0-.949 1.001.935.935 0 0 0 .949-1ZM106.276 92.055v.335h-.085a.848.848 0 0 0-.848.945v1.31h-.344V92.08h.331v.5a.97.97 0 0 1 .946-.525ZM109.214 91.02v3.621h-.331v-.513c-.21.344-.589.549-.992.534a1.306 1.306 0 0 1 0-2.612 1.11 1.11 0 0 1 .975.51v-1.544l.348.004Zm-.339 2.336a.955.955 0 1 0-.954 1.001.944.944 0 0 0 .954-1Z" fill="#E0E0E0"/><path fill-rule="evenodd" clip-rule="evenodd" d="M137.8 91.537v1.34h1.764v.314H137.8v1.45h-.365v-3.417h2.345v.313h-1.98ZM140.111 93.356a1.305 1.305 0 1 1 1.31 1.31 1.27 1.27 0 0 1-1.31-1.31Zm2.26 0a.954.954 0 1 0-.95 1.001.935.935 0 0 0 .95-1ZM144.72 92.055v.335h-.081a.848.848 0 0 0-.848.945v1.31h-.348V92.08h.335v.5a.971.971 0 0 1 .942-.525ZM147.696 92.076v2.251c0 .882-.424 1.272-1.272 1.272a1.82 1.82 0 0 1-1.196-.394l.178-.267c.283.236.642.36 1.01.352.648 0 .945-.297.945-.929v-.33c-.224.329-.603.518-1.001.5a1.246 1.246 0 1 1 0-2.489c.406-.02.792.175 1.018.513v-.492l.318.013Zm-.335 1.217a.974.974 0 1 0-.979.941.92.92 0 0 0 .979-.954v.013ZM148.4 93.356a1.306 1.306 0 1 1 1.306 1.31 1.274 1.274 0 0 1-1.306-1.31Zm2.256 0a.954.954 0 1 0-.95 1.001.935.935 0 0 0 .958-1h-.008ZM153.064 94.484a.815.815 0 0 1-.543.183.681.681 0 0 1-.75-.747v-1.552h-.458v-.292h.479v-.564h.348v.564h.78v.292h-.78V93.9a.423.423 0 0 0 .424.466.56.56 0 0 0 .377-.131l.123.25ZM155.184 92.097c0-.348-.288-.593-.789-.593a1.127 1.127 0 0 0-.928.394l-.259-.195a1.485 1.485 0 0 1 1.213-.505c.682 0 1.123.327 1.123.848 0 .848-.894.874-.894 1.569h-.361c-.012-.806.895-.878.895-1.518Zm-.967 2.315a.248.248 0 0 1 .255-.25.251.251 0 0 1 .258.25.258.258 0 0 1-.258.254.252.252 0 0 1-.267-.254h.012Z" fill="#1A4F8B"/><path fill-rule="evenodd" clip-rule="evenodd" d="M158.5 99.034a.745.745 0 0 0 .47-.204c.31-.237.178-.814.204-1.48 0-1.37 0-3.392-.021-5.965V88.79a2.26 2.26 0 0 0-.034-.539.672.672 0 0 0-.344-.386 1.305 1.305 0 0 0-.555-.059h-17.622l-72.368.034a.58.58 0 0 0-.48.242.818.818 0 0 0-.114.568v9.794a.59.59 0 0 0 .573.488h60.305l21.934.034h8.043-8.043L128.514 99l-32.533.025H68.209a.806.806 0 0 1-.789-.657c-.03-.254 0-.424 0-.666v-9.027a3.36 3.36 0 0 1 0-.347.806.806 0 0 1 .801-.683l72.369.03h17.621c.202-.02.406.004.598.072a.748.748 0 0 1 .394.45c.038.186.051.377.039.567v2.595c0 2.587 0 4.597-.022 5.966v.899a.727.727 0 0 1-.229.598.659.659 0 0 1-.491.212Z" fill="#E0E0E0"/><path fill-rule="evenodd" clip-rule="evenodd" d="m104.172 139.92.145-.28c.308.277.709.428 1.123.424.64 0 .92-.267.92-.602 0-.937-2.12-.365-2.12-1.628 0-.5.39-.933 1.272-.933.374-.005.741.1 1.056.301l-.119.289a1.771 1.771 0 0 0-.937-.285c-.627 0-.903.28-.903.619 0 .937 2.12.374 2.12 1.616 0 .5-.403.933-1.272.933a1.867 1.867 0 0 1-1.285-.454ZM107.348 136.952a.256.256 0 0 1 .076-.176.252.252 0 0 1 .179-.07.247.247 0 0 1-.012.492.246.246 0 0 1-.243-.246Zm.077.81h.424v2.544h-.424v-2.544ZM111.088 138.839v1.505h-.344v-1.454a.717.717 0 0 0-.771-.819.848.848 0 0 0-.899.925v1.348h-.344V137.8h.331v.424c.212-.328.585-.516.975-.492a.981.981 0 0 1 1.052 1.107ZM114.425 137.762v2.251c0 .882-.424 1.272-1.272 1.272a1.818 1.818 0 0 1-1.196-.394l.178-.267c.283.236.641.361 1.009.352.649 0 .946-.297.946-.929v-.326a1.158 1.158 0 0 1-1.001.496 1.247 1.247 0 1 1 0-2.489 1.16 1.16 0 0 1 1.018.513v-.492l.318.013Zm-.339 1.217a.975.975 0 1 0-.976.941.915.915 0 0 0 .976-.941ZM118.983 137.762v2.544h-.331v-.471a1.024 1.024 0 0 1-.924.496.996.996 0 0 1-1.081-1.102v-1.488h.347v1.454c0 .543.28.823.768.823a.852.852 0 0 0 .873-.933v-1.344l.348.021ZM122.536 139.042a1.246 1.246 0 0 1-1.272 1.31 1.125 1.125 0 0 1-.975-.508v1.429h-.348v-3.511h.335v.504c.211-.339.588-.54.988-.525a1.242 1.242 0 0 1 1.272 1.301Zm-.348 0a.958.958 0 1 0-.954 1.001.943.943 0 0 0 .971-1.001h-.017Z" fill="#263238"/><path fill-rule="evenodd" clip-rule="evenodd" d="M158.5 144.533a.748.748 0 0 0 .47-.199c.31-.242.178-.818.204-1.484 0-1.37 0-3.392-.021-5.966v-2.595c.01-.18-.001-.361-.034-.538a.671.671 0 0 0-.344-.386 1.29 1.29 0 0 0-.555-.059h-17.622l-72.368.034a.592.592 0 0 0-.48.241.818.818 0 0 0-.114.568v9.791a.582.582 0 0 0 .573.487H95.98l32.533.021 21.934.038h8.043-2.082l-5.961.022-21.934.034-32.533.025H68.209a.848.848 0 0 1-.356-.089.788.788 0 0 1-.424-.572c-.03-.255 0-.424 0-.666v-9.065a3.366 3.366 0 0 1 0-.348.808.808 0 0 1 .801-.683l72.368.03h17.622c.202-.02.406.005.598.072.188.089.33.252.394.45.037.187.05.378.038.568v2.595c0 2.586 0 4.596-.021 5.965v.899a.727.727 0 0 1-.229.598.663.663 0 0 1-.5.212Z" fill="#263238"/><path fill-rule="evenodd" clip-rule="evenodd" d="M67.522 117.881v-.946c0-1.296.458-2.402 1.375-3.319.916-.916 2.022-1.375 3.319-1.375H154.5c1.296 0 2.403.459 3.319 1.375.917.917 1.375 2.023 1.375 3.319v1.891c0 1.296-.458 2.402-1.375 3.319-.916.916-2.023 1.375-3.319 1.375H72.216c-1.296 0-2.403-.459-3.32-1.375-.916-.917-1.374-2.023-1.374-3.319v-.945Z" fill="#1A4F8B"/><path fill-rule="evenodd" clip-rule="evenodd" d="M106.352 115.875h.36v3.104h1.912v.313h-2.272v-3.417ZM108.853 118.008a1.307 1.307 0 1 1 1.311 1.306 1.276 1.276 0 0 1-1.311-1.306Zm2.26 0a.953.953 0 1 0-.949 1 .932.932 0 0 0 .949-1ZM114.548 116.723v2.256c0 .882-.424 1.272-1.272 1.272a1.795 1.795 0 0 1-1.196-.395l.178-.263c.282.237.641.362 1.009.352.649 0 .946-.296.946-.932v-.327a1.158 1.158 0 0 1-1.001.496 1.24 1.24 0 0 1-1.08-1.865 1.241 1.241 0 0 1 1.08-.619c.405-.02.79.175 1.014.513v-.497l.322.009Zm-.339 1.221a.975.975 0 1 0-.976.941.917.917 0 0 0 .976-.941ZM116.714 115.913a.255.255 0 1 1 .51.001.255.255 0 0 1-.51-.001Zm.077.81h.424v2.569h-.424v-2.569ZM120.467 117.804v1.488h-.348v-1.454a.72.72 0 0 0-.772-.822.844.844 0 0 0-.898.928v1.348h-.344v-2.569h.331v.475c.211-.33.585-.518.975-.492a.982.982 0 0 1 1.056 1.098Z" fill="#fff"/><path fill-rule="evenodd" clip-rule="evenodd" d="m19.758 186.912-.547 3.116.463.102c2.069.424 10.544 2.082 12.003 1.874 1.628-.233-4.57-2.671-4.57-2.671l.194-1.319-7.543-1.102Z" fill="#1A4F8B"/><path fill-rule="evenodd" clip-rule="evenodd" d="M21.959 190.376a2.644 2.644 0 0 0-.717-1.76 2.545 2.545 0 0 0-1.696-.822l-.33 2.12 2.743.462Z" fill="#fff" opacity=".5"/><path fill-rule="evenodd" clip-rule="evenodd" d="M30.104 190.635s2.15 1 1.815 1.327c-.335.326-8.968-1.009-12.72-1.934l.038-.165 10.049 1.645s.394-.92.818-.873Z" fill="#fff" opacity=".5"/><path fill-rule="evenodd" clip-rule="evenodd" d="M19.13 189.838c.041.017.084.028.128.033l.369.081 1.365.271c1.153.225 2.752.509 4.52.785 1.768.275 3.392.487 4.55.627l1.382.157.377.038h.132l-.132-.025-.373-.051-1.378-.186a221.073 221.073 0 0 1-9.065-1.412l-1.37-.242-.373-.064-.131-.012Z" fill="#263238"/><path fill-rule="evenodd" clip-rule="evenodd" d="M29.277 191.623a3.28 3.28 0 0 1 .36-.615c.165-.172.349-.324.548-.454-.249.05-.47.19-.62.394a1.054 1.054 0 0 0-.288.675ZM27.225 190.147s.144-.097.284-.254c.14-.157.229-.297.212-.314-.017-.017-.148.097-.284.254-.136.157-.233.297-.212.314ZM26.661 189.799s.148-.046.297-.163c.148-.118.254-.23.242-.256-.013-.025-.145.046-.293.164-.148.117-.259.23-.246.255Z" fill="#263238"/><path fill-rule="evenodd" clip-rule="evenodd" d="M26.386 188.956a1.784 1.784 0 1 0 .424.021.87.87 0 0 0-.424-.021ZM26.33 188.43c.118.195.266.32.424.359a.45.45 0 0 0 .467 0 1.838 1.838 0 0 0-.424-.183 1.74 1.74 0 0 0-.467-.176Z" fill="#263238"/><path fill-rule="evenodd" clip-rule="evenodd" d="M27.581 189.528c.158.049.323.074.488.072a3.08 3.08 0 0 0 .534-.034c.107-.014.212-.04.314-.076a.271.271 0 0 0 .144-.132.193.193 0 0 0-.043-.207.902.902 0 0 0-1.14.089.912.912 0 0 0-.212.301c-.03.08-.038.127-.03.131.072-.143.168-.272.284-.381a.898.898 0 0 1 .458-.204c.2-.037.407.009.573.127.067.068 0 .157-.072.191-.093.036-.19.062-.289.076a3.043 3.043 0 0 1-.521.051c-.297-.004-.484-.004-.488-.004Z" fill="#263238"/><path fill-rule="evenodd" clip-rule="evenodd" d="M27.704 189.57s.098-.106.11-.326a.808.808 0 0 0-.08-.377.49.49 0 0 0-.365-.31.192.192 0 0 0-.182.199c-.001.08.015.16.046.234.048.115.109.225.183.326.131.174.241.25.25.242.008-.009-.085-.102-.195-.276a1.824 1.824 0 0 1-.157-.326c-.05-.111-.068-.301.055-.306.123-.004.23.149.288.255a.844.844 0 0 1 .09.339c-.004.11-.018.219-.043.326ZM19.606 187.794s.216 0 .555.106c.437.121.831.36 1.14.691a2.5 2.5 0 0 1 .594 1.196c.064.339.043.559.06.559a.48.48 0 0 0 .025-.152 2.364 2.364 0 0 0-.61-1.671 2.402 2.402 0 0 0-1.196-.691 2.017 2.017 0 0 0-.424-.051.412.412 0 0 0-.144.013ZM23.023 189.804c.35.156.714.263 1.086.319.367.087.744.118 1.119.092 0-.029-.496-.082-1.102-.198-.607-.116-1.094-.242-1.103-.213Z" fill="#263238"/><path fill-rule="evenodd" clip-rule="evenodd" d="M21.552 189.57c-.055 0 .065.111.141.234.076.123.12.224.185.229.065.004.152-.115 0-.255s-.283-.225-.326-.208ZM21.094 188.791s0 .129.14.241c.139.113.234.193.27.177.037-.016 0-.128-.139-.246s-.234-.193-.271-.172ZM20.352 188.371c0 .044.105.067.215.17.11.104.18.223.202.201.022-.023 0-.23-.158-.349-.158-.118-.259-.067-.259-.022ZM19.797 188.137s.049.194.164.292c.115.097.23.121.255.06.024-.06-.05-.194-.165-.291-.115-.098-.23-.134-.254-.061Z" fill="#263238"/><path fill-rule="evenodd" clip-rule="evenodd" d="m59.53 189.575.284 3.154.475-.021c2.12-.119 10.718-.746 12.075-1.327 1.51-.649-5.088-1.382-5.088-1.382l-.157-1.323-7.59.899Z" fill="#1A4F8B"/><path fill-rule="evenodd" clip-rule="evenodd" d="M62.561 192.365a2.65 2.65 0 0 0-1.149-1.514 2.582 2.582 0 0 0-1.84-.356l.237 2.12 2.752-.25Z" fill="#fff" opacity=".5"/><path fill-rule="evenodd" clip-rule="evenodd" d="M70.503 190.469s2.336.399 2.094.806c-.241.407-8.904 1.365-12.783 1.454v-.169l10.146-1.039s.102-.984.543-1.052Z" fill="#fff" opacity=".5"/><path fill-rule="evenodd" clip-rule="evenodd" d="M59.687 192.568h.13l.378-.021 1.391-.093c1.17-.089 2.786-.229 4.57-.424 1.786-.195 3.393-.424 4.554-.581l1.37-.225.373-.064a.92.92 0 0 0 .127-.025h-.131l-.369.089-1.382.182c-1.162.153-2.773.356-4.554.552-1.78.195-3.392.347-4.567.453l-1.369.085-.377.034-.145.038Z" fill="#263238"/><path fill-rule="evenodd" clip-rule="evenodd" d="M69.96 191.648c.033-.235.094-.466.182-.687.12-.209.262-.403.424-.581a1.047 1.047 0 0 0-.496.543.992.992 0 0 0-.11.725ZM67.583 190.753c.027 0 .144-.131.261-.322a.742.742 0 0 0 .155-.356s-.144.131-.261.318c-.118.186-.187.348-.155.36ZM66.928 190.495c.022 0 .132-.077.25-.208.12-.131.196-.254.179-.271-.017-.017-.132.076-.25.207-.12.132-.196.255-.179.272ZM66.462 190.057c.132.101.27.101.403 0 .135.006.268-.085.39-.264-.14-.112-.285-.112-.424 0-.128.004-.254.094-.37.264ZM66.271 189.417c.141.252.3.348.458.277.158.036.316-.102.45-.394a.79.79 0 0 0-.454.073.735.735 0 0 0-.454.044Z" fill="#263238"/><path fill-rule="evenodd" clip-rule="evenodd" d="M67.764 190.058c.164.011.33-.007.487-.055a2.69 2.69 0 0 0 .51-.174c.1-.04.195-.091.283-.153a.271.271 0 0 0 .106-.165.208.208 0 0 0-.097-.191.908.908 0 0 0-1.077.386.803.803 0 0 0-.123.344.285.285 0 0 0 0 .135c.035-.15.095-.293.178-.424a.851.851 0 0 1 .386-.318.762.762 0 0 1 .585-.025c.085.046.063.144 0 .203-.081.059-.168.109-.259.149a3.322 3.322 0 0 1-.492.186c-.3.068-.487.089-.487.102Z" fill="#263238"/><path fill-rule="evenodd" clip-rule="evenodd" d="M67.895 190.071a.492.492 0 0 0 0-.348.742.742 0 0 0-.174-.339.48.48 0 0 0-.424-.204.2.2 0 0 0-.127.242c.022.076.06.147.11.208.076.101.164.192.263.271a.742.742 0 0 0 .301.166s-.106-.077-.258-.217a1.747 1.747 0 0 1-.238-.271c-.08-.093-.144-.276-.025-.31.118-.034.258.081.343.17a.82.82 0 0 1 .174.301c.028.108.046.219.055.331ZM59.61 190.469s.216-.042.564-.042a2.395 2.395 0 0 1 2.167 1.365c.152.314.186.534.203.53.017-.004 0-.059 0-.157a1.798 1.798 0 0 0-.127-.398 2.323 2.323 0 0 0-2.226-1.404c-.143.002-.285.02-.424.055a.575.575 0 0 0-.157.051ZM63.435 191.664c.373.078.75.078 1.123 0a3.045 3.045 0 0 0 1.103-.355c0-.05-.5.099-1.111.198-.61.1-1.115.107-1.115.157Z" fill="#263238"/><path fill-rule="evenodd" clip-rule="evenodd" d="M61.946 191.678c0 .021.082.103.185.21.102.108.164.211.212.206.048-.004.04-.124-.082-.253-.123-.129-.294-.193-.315-.163ZM61.306 191.045c0 .033.056.147.174.261.117.114.224.175.246.148.023-.027-.056-.148-.168-.262-.112-.114-.23-.181-.252-.147ZM60.47 190.894c0 .067.107 0 .226.101.118.101.203.213.22.157.017-.056-.06-.314-.203-.392-.145-.078-.255.134-.242.134ZM59.882 190.776c0 .108.075.252.188.324.113.072.219 0 .234 0 .015 0-.076-.252-.189-.324-.113-.072-.226-.108-.233 0ZM61.743 69.96c-.607-3.244-4.19-5.046-5.589-8.056-.546-1.162-.742-2.472-1.34-3.608a5.804 5.804 0 0 0-7.076-2.565l-.225.347c1.45 3.045 2.896 5.135 4.342 8.175.563 1.04.952 2.164 1.154 3.328.13 1.175-.183 2.464-1.09 3.219-.73.602-1.696.784-2.502 1.31a4.079 4.079 0 0 0-1.598 3.79 6.865 6.865 0 0 0 1.886 3.816c.933 1.022 2.409 1.896 3.638 1.272.624-.322 1.01-.95 1.467-1.48.942-1.08 2.24-1.768 3.392-2.616 2.214-1.606 4.045-4.231 3.54-6.932Z" fill="#263238"/><path fill-rule="evenodd" clip-rule="evenodd" d="M92.924 85.037c-.814.742-5.245 4.465-5.245 4.465L83.282 85.5c.115-.327 1.192-2.175 1.314-2.638.109-.398.146-.813.11-1.225a5.618 5.618 0 0 0-.27-1.51c-.196-.423.237-.873.61-.66.373.211.933 1.39.916 2.908-.017 1.518 5.936-1.968 6.784-1.115l.178 3.777Z" fill="#FFBE9D"/><path fill-rule="evenodd" clip-rule="evenodd" d="M55.12 79.063 69.706 96.52l13.398-12.11 5.843 5.7s-16.812 18.499-19.377 18.367c-2.565-.131-11.278-5.893-11.278-5.893l-3.172-23.52Z" fill="#1A4F8B"/><path fill-rule="evenodd" clip-rule="evenodd" d="M88.23 76.464a.237.237 0 0 0-.297.14l-3.981 9.998a.377.377 0 0 0 .19.483l4.707 2.248a.382.382 0 0 0 .513-.195l4.457-10.363a.382.382 0 0 0-.225-.509l-5.364-1.802Z" fill="#263238"/><path fill-rule="evenodd" clip-rule="evenodd" d="m88.103 77.185-3.646 8.92 4.93 2.235 3.736-9.46-5.02-1.695Z" fill="#F5F5F5"/><path fill-rule="evenodd" clip-rule="evenodd" d="M86.683 92.708a6.56 6.56 0 0 1-1.04-.734 31.607 31.607 0 0 1-2.297-2.027A30.354 30.354 0 0 1 81.26 87.7a6 6 0 0 1-.76-1.013c.314.283.607.588.878.911.53.573 1.272 1.357 2.12 2.188a52.171 52.171 0 0 0 2.243 2.065c.333.264.648.55.942.857ZM82.49 86.114c.029.026-.153.17-.132.48.01.165.089.318.216.424a.551.551 0 0 0 .848-.48.61.61 0 0 0-.267-.424.98.98 0 0 0-.484-.127s.039-.05.14-.072a.615.615 0 0 1 .424.064.73.73 0 0 1 .39.513.733.733 0 0 1-1.157.665.716.716 0 0 1-.25-.593.636.636 0 0 1 .157-.399c.05-.042.11-.06.114-.05ZM69.137 101.62a2.2 2.2 0 0 1-.216-.759 6.91 6.91 0 0 1 .424-3.735c.083-.252.212-.487.382-.691-.283.828-.495 1.679-.632 2.544-.061.88-.047 1.763.042 2.641Z" fill="#263238"/><path fill-rule="evenodd" clip-rule="evenodd" d="M71.232 101.484a2.213 2.213 0 0 1-.47-.653 8.116 8.116 0 0 1-1.078-3.714 2.301 2.301 0 0 1 .047-.805c.105.898.265 1.788.48 2.666.287.856.628 1.693 1.021 2.506Z" fill="#263238"/><path fill-rule="evenodd" clip-rule="evenodd" d="m88.188 78.847-2.413 6 3.613 1.48 2.518-6.132-3.718-1.348Z" fill="#EBEBEB"/><path fill-rule="evenodd" clip-rule="evenodd" d="m86.638 84.084.02-.049a.298.298 0 0 1 .169-.167.298.298 0 0 1 .237 0l2.136.894a.298.298 0 0 1 .167.168.298.298 0 0 1-.001.236l-.041.098a.298.298 0 0 1-.168.167.298.298 0 0 1-.237 0l-2.136-.893a.298.298 0 0 1-.167-.168.298.298 0 0 1 0-.237l.021-.049Z" fill="#1A4F8B"/><path fill-rule="evenodd" clip-rule="evenodd" d="m88.454 79.828 2.678 1.008-.146.39-2.678-1.01.146-.388Z" fill="#455A64"/><path fill-rule="evenodd" clip-rule="evenodd" d="m87.806 81.074 2.96 1.115-.288.766-2.96-1.115.288-.766ZM87.316 82.302l2.96 1.114-.288.766-2.96-1.114.288-.766Z" fill="#E0E0E0"/><path fill-rule="evenodd" clip-rule="evenodd" d="M92.767 81.26c-.683.11-1.514.178-2.196.292-.196.018-.384.08-.552.182a.424.424 0 0 0-.131.522c.106.19.377.208.598.204l1.505-.051a7.95 7.95 0 0 0-1.895.318c-.28.093-.594.284-.602.58a.555.555 0 0 0 .5.5c.263.017.526.017.789 0 0 0 1.03 0 1.072.153-.64 0-1.492.132-2.12.191-.178 0-.258.255-.3.424-.048.175.029.36.186.45a.576.576 0 0 0 .254.025l2.493-.076" fill="#FFBE9D"/><path fill-rule="evenodd" clip-rule="evenodd" d="M49.964 78.016s3.032-.356 5.16 1.043c1.92 1.272 8.662 20.581 8.4 26.314-.263 5.732.47 15.84 1.649 20.004 1.179 4.164 2.07 40.28-7.208 57.486l-17.278-2.426 5.402-46.398-.551-42.09 4.426-13.933Z" fill="#1A4F8B"/><path fill-rule="evenodd" clip-rule="evenodd" d="M48.968 78.016s3.036-.356 5.164 1.043c1.92 1.272 8.658 20.581 8.4 26.314-.26 5.732.466 15.84 1.649 20.004 1.183 4.164 2.069 40.28-7.208 57.486l-15.794-2.426 3.918-46.398-.577-42.086 4.448-13.937Z" fill="#000" opacity=".3"/><path fill-rule="evenodd" clip-rule="evenodd" d="M42.616 77.13s-9.502-1.022-6.962 12.559l2.442 14.289 15.515 9.387c2.094.564.313-9.752 3.468-14.526 1.183-1.785 1.272-3.121 1.183-3.944.3-3.116-2.197-5.058-2.544-8.208-.39-4.562-.373-7.09-2.358-7.602L42.625 77.13" fill="#455A64"/><path fill-rule="evenodd" clip-rule="evenodd" d="M55.892 85.601a4.168 4.168 0 0 0 0 2.002 8.06 8.06 0 0 0 .848 2.026c.467.785.872 1.604 1.212 2.451a7.806 7.806 0 0 1 .064 4.923 7.06 7.06 0 0 1-.602 1.378c-.086.165-.191.318-.314.458.306-.606.562-1.236.767-1.883a8.014 8.014 0 0 0-.122-4.8 19.052 19.052 0 0 0-1.183-2.43 7.694 7.694 0 0 1-.806-2.09 3.782 3.782 0 0 1-.026-1.509c.027-.136.065-.27.115-.398.017-.081.038-.132.047-.128Z" fill="#263238"/><path fill-rule="evenodd" clip-rule="evenodd" d="M51.134 78.11c-.224-2.337-.424-4.8-.424-4.8s2.968-.797 3.197-4.787c.225-3.816-.924-10.43-.924-10.43v-.336c-4.507-1.34-9.841-1.272-12.588 2.485l2.12 18.953c.25 2.2 2.336 3.744 4.689 3.46 2.404-.284 4.142-2.32 3.93-4.546Z" fill="#FFBE9D"/><path fill-rule="evenodd" clip-rule="evenodd" d="M53 62.905a.509.509 0 0 1-.791.473.484.484 0 0 1-.197-.32.509.509 0 0 1 .791-.474.483.483 0 0 1 .197.32ZM53 62.35c-.06.071-.466-.17-1.01-.12-.542.051-.91.37-.979.306-.067-.064 0-.149.183-.293a1.387 1.387 0 0 1 1.585-.148c.166.11.221.233.221.254ZM47.352 63.638a.509.509 0 0 1-.424.556.483.483 0 0 1-.564-.424.509.509 0 0 1 .424-.556.483.483 0 0 1 .564.424ZM47.348 63.104c-.055.072-.466-.174-1.005-.119-.538.055-.911.365-.98.306-.067-.06.022-.153.183-.297.22-.185.49-.298.776-.322.282-.03.565.03.81.173.178.115.246.225.216.259ZM49.714 66.928c.272-.114.557-.195.848-.241.136-.03.263-.072.276-.166a.665.665 0 0 0-.132-.402l-.513-1.014a18.627 18.627 0 0 1-1.191-2.667 17.99 17.99 0 0 1 1.403 2.566l.496 1.021c.104.158.15.347.127.535a.343.343 0 0 1-.207.224.798.798 0 0 1-.233.055c-.286.069-.58.099-.874.09Z" fill="#263238"/><path fill-rule="evenodd" clip-rule="evenodd" d="M50.719 73.31a10.061 10.061 0 0 1-5.398-.887s1.54 2.57 5.436 1.815l-.038-.928Z" fill="#EB996E"/><path fill-rule="evenodd" clip-rule="evenodd" d="M49.608 68.264a.98.98 0 0 0-.912-.276.89.89 0 0 0-.585.39.568.568 0 0 0 0 .65c.199.18.486.223.73.11.247-.117.469-.281.652-.484a.616.616 0 0 0 .14-.174.187.187 0 0 0-.02-.203" fill="#1A4F8B"/><path fill-rule="evenodd" clip-rule="evenodd" d="M48.154 67.463c.089 0 .148.572.69.941.544.369 1.167.242 1.18.322.012.08-.128.132-.395.161a1.45 1.45 0 0 1-.98-.233 1.31 1.31 0 0 1-.542-.797c-.047-.242.008-.394.047-.394ZM32.525 131.512l-6.025 24.83s-7.183 29.73-7.42 30.515l-.225.924 10.121.763 17.537-55.149-13.988-1.883Z" fill="#263238"/><path fill-rule="evenodd" clip-rule="evenodd" d="M50.744 148.943c1.637 7.916 7.632 41.128 7.632 41.128l10.265-1.056-5.838-42.362a13.917 13.917 0 0 0-.67-3.248l-9.595-28.768-18.046-11.478c-.178 0-2.921 7.416-2.544 12.555a13.166 13.166 0 0 0 2.32 6.398 551.473 551.473 0 0 1 3.103 4.554c.573.865 13.373 22.277 13.373 22.277Z" fill="#263238"/><path fill-rule="evenodd" clip-rule="evenodd" d="M30.218 113.132a57.909 57.909 0 0 0-1.22 5.427c-1.154 6.652-4.088 22.841-5.992 27.136-2.412 5.427-6.33 25.928-5.126 29.68 1.204 3.752 27.437 7.539 27.437 7.539s1.505-24.571 3.015-30.749c1.51-6.177 4.664-19.75 5.122-27.738.458-7.988.3-21.857-2.26-30.447-2.561-8.59-8.455-17.618-8.455-17.618s-5.037 1.391-6.754 3.392c0 0-2.095 2.57-2.12 5.016-.026 2.447-1.162 14.077-1.92 20.836-.238 1.929-1.09 5.232-1.727 7.526Z" fill="#1A4F8B"/><path fill-rule="evenodd" clip-rule="evenodd" d="M53.48 124.02a.358.358 0 0 1 0-.123v-.36c0-.331-.04-.793-.069-1.383a44.53 44.53 0 0 0-.487-5.088 17.036 17.036 0 0 0-.92-3.392 13.055 13.055 0 0 0-2.023-3.451c-.87-1.115-1.9-2.196-2.9-3.392a20.335 20.335 0 0 1-1.438-1.891 10.913 10.913 0 0 1-1.115-2.184 7.126 7.126 0 0 1-.262-4.77 9.553 9.553 0 0 1 1.106-2.01c.186-.303.329-.631.424-.975.042-.164.055-.335.038-.504a1.017 1.017 0 0 0-.17-.454c-.193-.27-.47-.47-.788-.568-.318-.119-.653-.208-.97-.356a1.886 1.886 0 0 1-.794-.662 2.36 2.36 0 0 1-.339-.937 6.26 6.26 0 0 1 .047-1.852l.241-1.671c.314-2.12.564-3.841.742-5.046.094-.585.162-1.043.212-1.373l.064-.352c.006-.042.014-.083.025-.123a.385.385 0 0 1 0 .123c0 .093 0 .212-.038.36-.042.33-.097.789-.174 1.374-.16 1.213-.39 2.934-.67 5.058-.072.534-.148 1.094-.229 1.675-.1.594-.112 1.2-.038 1.798.046.302.154.59.318.848.179.263.429.469.721.593.293.136.623.22.958.344.36.112.672.338.89.644.107.162.176.346.2.539.02.193.006.388-.042.576-.1.366-.255.715-.458 1.035a9.552 9.552 0 0 0-1.086 1.976 6.94 6.94 0 0 0 .267 4.621 13.444 13.444 0 0 0 2.51 4.011c.993 1.188 2.023 2.273 2.897 3.392a13.368 13.368 0 0 1 2.022 3.562c.42 1.105.722 2.25.903 3.417.25 1.686.392 3.385.424 5.088 0 .591.008 1.053.026 1.387v.36c-.022.094-.026.136-.026.136ZM50.134 127.378s.021-.068.123-.136a.705.705 0 0 1 .496-.084c.271.04.494.236.568.5a.755.755 0 0 1-1.247.772.692.692 0 0 1-.186-.734.714.714 0 0 1 .314-.398c.106-.056.174-.056.178-.043a.905.905 0 0 0-.34.484.525.525 0 0 0 .17.538.555.555 0 0 0 .912-.568.535.535 0 0 0-.403-.399.98.98 0 0 0-.585.068ZM47.323 141.989s.025-.068.127-.131a.68.68 0 0 1 .496-.089c.27.042.492.237.568.5a.755.755 0 0 1-1.247.772.717.717 0 0 1 .123-1.128c.106-.06.178-.06.178-.047a.962.962 0 0 0-.339.484.533.533 0 0 0 .174.538c.19.159.457.186.674.068a.607.607 0 0 0 .238-.636.535.535 0 0 0-.424-.399 1.006 1.006 0 0 0-.568.068ZM47.234 123.71a.47.47 0 0 1 0 .14c0 .108-.013.249-.039.424-.038.378-.097.912-.173 1.595a241.747 241.747 0 0 1-.776 5.859 91.464 91.464 0 0 1-.708 4.02 13.127 13.127 0 0 1-.611 2.205 2.35 2.35 0 0 1-.131.279c-.058.091-.13.173-.212.242a2.21 2.21 0 0 1-.526.339 6.377 6.377 0 0 1-1.17.403c-1.696.352-3.42.545-5.152.577a53.487 53.487 0 0 1-5.563-.064l-.237-.029a.346.346 0 0 1-.255-.183 1.329 1.329 0 0 1-.131-.483 6.225 6.225 0 0 1-.026-.929c0-.61.077-1.208.145-1.797a67.28 67.28 0 0 1 .513-3.448c.381-2.23.801-4.329 1.216-6.249v-.072h.098a59.89 59.89 0 0 0 10.036-1.743c1.192-.314 2.12-.598 2.752-.789l.733-.224a1.79 1.79 0 0 1 .238-.068l-.064.025-.186.068c-.166.064-.39.148-.704.254-.623.212-1.552.509-2.74.848a56.747 56.747 0 0 1-10.065 1.815l.085-.076a130.55 130.55 0 0 0-1.196 6.245 68.34 68.34 0 0 0-.5 3.439 20.601 20.601 0 0 0-.144 1.781c-.015.298-.007.597.025.894.012.138.047.273.102.399.038.051.05.068.097.076l.225.026a53 53 0 0 0 5.538.068c1.71-.03 3.413-.219 5.087-.564.391-.091.772-.22 1.137-.386a1.31 1.31 0 0 0 .776-.759c.265-.702.47-1.425.61-2.163.306-1.428.535-2.777.73-4.006.394-2.464.661-4.461.848-5.843l.216-1.594c.025-.17.042-.31.06-.424.016-.115.042-.128.042-.128Z" fill="#263238"/><path fill-rule="evenodd" clip-rule="evenodd" d="M46.962 126.801a2.481 2.481 0 0 1-.504.263c-.331.157-.823.361-1.433.59a27.064 27.064 0 0 1-10.05 1.666c-.656 0-1.186-.055-1.547-.098a3.064 3.064 0 0 1-.564-.08 2.57 2.57 0 0 1 .568 0c.365 0 .89.025 1.544.025 3.4-.001 6.776-.563 9.993-1.662a41.507 41.507 0 0 0 1.455-.525c.173-.078.353-.137.538-.179Z" fill="#263238"/><path fill-rule="evenodd" clip-rule="evenodd" d="m23.167 114.845.038-.2c.03-.144.073-.335.128-.585.123-.517.3-1.272.525-2.23a351.757 351.757 0 0 1 2.095-8.158l1.522-5.614c.551-2.018 1.132-4.176 1.823-6.427a52.051 52.051 0 0 1 2.616-6.907 31.976 31.976 0 0 1 1.879-3.43c.346-.575.74-1.121 1.174-1.633a4.98 4.98 0 0 1 1.599-1.272 2.76 2.76 0 0 1 2.052-.161c.651.231 1.22.648 1.636 1.2.849 1.094 1.06 2.468 1.184 3.727.216 2.544.423 5.012.623 7.356l1.038 12.449c.297 3.545.522 6.402.683 8.395.077.984.136 1.751.174 2.285 0 .255.03.45.042.594.004.068.004.136 0 .204 0 0 0-.068-.03-.2-.029-.131-.033-.343-.059-.593l-.216-2.281c-.178-1.993-.424-4.855-.75-8.391-.327-3.537-.679-7.764-1.09-12.445-.203-2.345-.424-4.804-.636-7.352-.123-1.25-.335-2.586-1.136-3.612a3.316 3.316 0 0 0-1.531-1.124 2.515 2.515 0 0 0-1.887.148c-.589.3-1.11.72-1.53 1.23-.428.498-.814 1.03-1.154 1.59a31.88 31.88 0 0 0-1.87 3.392 52.39 52.39 0 0 0-2.616 6.873c-.695 2.243-1.272 4.401-1.84 6.415-.568 2.014-1.077 3.893-1.547 5.605a485.887 485.887 0 0 0-2.163 8.141c-.246.959-.424 1.696-.564 2.222-.068.246-.114.424-.152.577-.038.152-.06.212-.06.212Z" fill="#455A64"/><path fill-rule="evenodd" clip-rule="evenodd" d="M22.129 113.382c-.166.661-3.248 18.202-3.248 18.202l22.934.742 3.159-18.189-22.845-.755Z" fill="#263238"/><path fill-rule="evenodd" clip-rule="evenodd" d="M44.736 114.48a1.387 1.387 0 0 1-.208.157c-.135.097-.347.233-.619.424-.538.348-1.335.848-2.336 1.403-1 .556-2.209 1.221-3.587 1.874-.691.323-1.408.666-2.2.95a7.6 7.6 0 0 1-2.544.373 12.02 12.02 0 0 1-4.834-1.263 17.687 17.687 0 0 1-3.392-2.222 31.686 31.686 0 0 1-2.035-1.815c-.23-.224-.424-.402-.526-.525a1.53 1.53 0 0 1-.17-.195c.074.046.142.1.204.161.14.131.326.292.551.496.48.424 1.17 1.047 2.073 1.755a18.057 18.057 0 0 0 3.393 2.146 12.035 12.035 0 0 0 4.714 1.204 7.555 7.555 0 0 0 2.49-.356c.762-.276 1.496-.615 2.183-.929a63.565 63.565 0 0 0 3.595-1.827c1.01-.556 1.815-1.018 2.37-1.34l.64-.373a.894.894 0 0 1 .238-.098Z" fill="#455A64"/><path fill-rule="evenodd" clip-rule="evenodd" d="M43.333 115.252c.06 0-.556 3.816-1.374 8.535-.818 4.719-1.53 8.501-1.59 8.501-.06 0 .556-3.816 1.374-8.531.818-4.715 1.53-8.514 1.59-8.505ZM32.546 118.949c-.063.568-.123 1.141-.186 1.696-.032.178-.032.36 0 .538.04.182.177.327.356.378a.504.504 0 0 0 .509-.293 1.5 1.5 0 0 0 .123-.615c.03-.61.063-1.221.097-1.827H32.7" fill="#455A64"/><path fill-rule="evenodd" clip-rule="evenodd" d="M37.27 78.677c1.865-.627 3.421 1.79 3.633 3.744.226 2.255.268 4.523.128 6.784-.335 6.683-3.359 13.072-3.359 13.072l19.182 2.875-.704 7.378-24.257-2.604a5.746 5.746 0 0 1-4.888-7.403c2.166-7.068 5.707-17.231 6.491-18.914 1.085-2.269 1.208-4.075 3.774-4.931Z" fill="#1A4F8B"/><path fill-rule="evenodd" clip-rule="evenodd" d="M30.977 109.731h.128l.364.051 1.404.212c1.23.17 3.014.424 5.257.683 4.486.53 10.787 1.157 18.024 1.696l-.114.097c.225-2.344.462-4.821.704-7.365l.093.119-19.177-2.887h-.106l.034-.098c1.246-3.858 2.2-7.051 2.768-9.298.289-1.12.488-2.006.61-2.608l.14-.687c.035-.152.056-.233.056-.233s0 .08-.026.238c-.025.157-.059.39-.118.695a45.008 45.008 0 0 1-.564 2.62c-.539 2.256-1.467 5.461-2.697 9.328l-.076-.114 19.19 2.845h.102v.106c-.242 2.544-.48 5.016-.704 7.365v.106h-.102c-7.242-.568-13.542-1.226-18.028-1.794-2.239-.28-4.024-.551-5.25-.746l-1.428-.246-.36-.068-.124-.017Z" fill="#263238"/><path fill-rule="evenodd" clip-rule="evenodd" d="M52.373 112.199c.005-1.275.085-2.549.241-3.815.08-1.281.235-2.555.467-3.817a34.155 34.155 0 0 1-.246 3.816 33.667 33.667 0 0 1-.462 3.816ZM54.81 105.818s.051-.03.145 0c.135.029.253.11.33.224a.552.552 0 0 1 .034.607.637.637 0 0 1-1.183-.229.614.614 0 0 1 .2-.568c.275-.234.517-.153.504-.132-.013.021-.208.034-.394.242a.462.462 0 0 0-.11.424c.04.178.175.318.352.364a.475.475 0 0 0 .457-.203.424.424 0 0 0 0-.424c-.127-.259-.339-.271-.335-.305Z" fill="#263238"/><path fill-rule="evenodd" clip-rule="evenodd" d="m60.988 102.977.874 9.086h4.43l1.06-9.086h-6.364Z" fill="#EBEBEB"/><path fill-rule="evenodd" clip-rule="evenodd" d="M60.988 101.802c-.275.34-.425.764-.424 1.2h7.208a1.336 1.336 0 0 0-.424-1.2h-6.36Z" fill="#455A64"/><path fill-rule="evenodd" clip-rule="evenodd" d="m61.806 100.967-.241.899 5.431.042-.36-.949-4.83.008ZM60.895 105.25c0 .084.53 4.575.53 4.575h5.414l.513-4.575h-6.457Z" fill="#455A64"/><path fill-rule="evenodd" clip-rule="evenodd" d="m61.234 104.448-.14 1.522 5.24.123s0 1.768-.53 2.298c0 0 .53 1.06-.059 1.65-.589.589-.94.424-.94.424s.237 1.178-.353 1.475c-.59.297-8.234-.161-8.234-.161l.47-4.931 1.697-.148c.072-1.633 1.76-2.443 2.85-2.252Z" fill="#FFBE9D"/><path fill-rule="evenodd" clip-rule="evenodd" d="M54.599 58.13a3.897 3.897 0 0 0-1.667-2.12 2.926 2.926 0 0 0-1.776-.364v-.127c-.569-1.022-1.696-1.243-2.858-1.048-1.162.195-2.307 1.043-3.341 1.595-1.4.746-2.735 1.598-4.075 2.45-1.11.708-2.247 1.446-3.015 2.515a5.232 5.232 0 0 0-.877 3.943c.275 1.488 1.191 2.993.648 4.405-.364.937-1.271 1.526-1.89 2.332a3.77 3.77 0 0 0-.081 4.393c.619.848 1.564 1.331 2.43 1.9 1.369.902 2.594 2.039 4.07 2.764 1.475.725 3.345.958 4.702.034 1.357-.925 1.849-2.862 1.598-4.537-.25-1.675-1.055-3.201-1.696-4.766a26.376 26.376 0 0 1-1.742-6.36c-.123-.873-.191-1.806.22-2.582.373-.695 1.073-1.14 1.696-1.616a13.518 13.518 0 0 0 3.638-4.155 5.303 5.303 0 0 0 1.455 2.035 13.17 13.17 0 0 0 2.853 2.019 6.598 6.598 0 0 0-.292-2.71Z" fill="#263238"/><path fill-rule="evenodd" clip-rule="evenodd" d="M188.371 184.088c-.285-1.119.457-2.243 1.272-3.053.814-.81 1.818-1.53 2.255-2.603.704-1.738-.216-4.003.975-5.448.704-.848 1.955-1.128 2.578-2.04a4.724 4.724 0 0 0 .568-1.632 16.585 16.585 0 0 1 4.168-7.692 14.367 14.367 0 0 1-1.662 7.429c-.483.911-1.077 1.798-1.242 2.819-.267 1.654.644 3.367.229 4.991-.475 1.857-2.569 3.091-2.68 5.003-.093 1.62 1.31 3.049 1.196 4.664a4.378 4.378 0 0 1-.734 1.917c-1.272 2.073-3.107 3.498-5.897 3.434l-3.414.102 2.388-7.891Z" fill="#1A4F8B"/><path fill-rule="evenodd" clip-rule="evenodd" d="M188.371 184.088c-.285-1.119.457-2.243 1.272-3.053.814-.81 1.818-1.53 2.255-2.603.704-1.738-.216-4.003.975-5.448.704-.848 1.955-1.128 2.578-2.04a4.724 4.724 0 0 0 .568-1.632 16.585 16.585 0 0 1 4.168-7.692 14.367 14.367 0 0 1-1.662 7.429c-.483.911-1.077 1.798-1.242 2.819-.267 1.654.644 3.367.229 4.991-.475 1.857-2.569 3.091-2.68 5.003-.093 1.62 1.31 3.049 1.196 4.664a4.378 4.378 0 0 1-.734 1.917c-1.272 2.073-3.107 3.498-5.897 3.434l-3.414.102 2.388-7.891Z" fill="#000" opacity=".3"/><path fill-rule="evenodd" clip-rule="evenodd" d="M185.288 192.072a2.805 2.805 0 0 1-.941-.025 5.883 5.883 0 0 1-1.107-.285 4.735 4.735 0 0 1-1.365-.758 1.894 1.894 0 0 1-.56-.755 3.543 3.543 0 0 1-.157-1.022 9.68 9.68 0 0 0-.072-1.103 3.088 3.088 0 0 0-.424-1.102c-.398-.708-1.064-1.382-1.272-2.345-.208-.962-.055-1.967.106-2.989.161-1.022.327-2.141-.059-3.209-.386-1.069-1.103-2.036-1.471-3.244-.369-1.208-.187-2.523-.255-3.816a5.102 5.102 0 0 0-.424-1.9c-.271-.606-.653-1.178-.945-1.814-.602-1.272-.7-2.748-.848-4.181-.077-.716-.153-1.446-.234-2.179a10.813 10.813 0 0 0-.364-2.188 19.787 19.787 0 0 0-.806-2.12 6.765 6.765 0 0 1-.39-1.107c-.063-.403-.08-.78-.106-1.174-.032-.789.003-1.579.106-2.362.098-.789.246-1.569.335-2.357v-.136l.021-.157.14.068a5.256 5.256 0 0 1 1.849 1.556 8.277 8.277 0 0 1 1.119 2.086 25.841 25.841 0 0 1 1.039 4.478c.205 1.45.672 2.85 1.378 4.134.369.61.818 1.17 1.213 1.763.422.581.711 1.246.848 1.951.195 1.446-.611 2.709-.45 3.99.076.628.284 1.234.611 1.776.309.547.67 1.056 1.013 1.565a9.99 9.99 0 0 1 .908 1.581c.239.536.383 1.11.424 1.696.08 1.154-.089 2.243 0 3.274.095.983.383 1.939.848 2.811.424.848.848 1.602 1.242 2.344.191.369.369.73.513 1.09.136.349.234.711.292 1.081a6.61 6.61 0 0 1 0 1.946 4.88 4.88 0 0 1-.987 2.481 2.187 2.187 0 0 1-.28.297 1.364 1.364 0 0 1-.225.19c-.127.094-.195.136-.195.136.243-.193.466-.411.666-.649a4.97 4.97 0 0 0 .937-2.463c.08-.638.07-1.285-.03-1.921a5.544 5.544 0 0 0-.297-1.056 11.94 11.94 0 0 0-.517-1.076c-.382-.734-.848-1.493-1.272-2.341a7.704 7.704 0 0 1-.848-2.858c-.081-1.055.08-2.149 0-3.273a4.847 4.847 0 0 0-.399-1.658 9.666 9.666 0 0 0-.899-1.547c-.343-.509-.708-1.018-1.026-1.578a4.662 4.662 0 0 1-.64-1.844c-.157-1.365.64-2.637.424-3.981a4.66 4.66 0 0 0-.81-1.866c-.386-.585-.848-1.141-1.221-1.768a12.378 12.378 0 0 1-1.412-4.206c-.28-1.476-.475-2.998-1.03-4.44a8.036 8.036 0 0 0-1.086-2.03 5.065 5.065 0 0 0-1.751-1.497l.157-.089v.14c-.089.797-.237 1.581-.33 2.357a13.374 13.374 0 0 0-.132 2.366c.021.382.042.78.098 1.141.098.363.224.719.377 1.064.313.697.585 1.412.814 2.141.201.725.325 1.47.369 2.222.076.733.157 1.463.229 2.183.157 1.438.254 2.871.848 4.117.284.619.666 1.192.945 1.819.267.623.411 1.291.424 1.968.068 1.318-.11 2.603.238 3.773.348 1.171 1.09 2.12 1.458 3.24.369 1.119.225 2.268.056 3.286-.17 1.017-.344 2.026-.128 2.938.217.912.848 1.586 1.243 2.315.214.349.358.737.424 1.141.041.371.062.745.063 1.119-.001.336.046.67.14.992.113.28.294.528.526.721.399.326.848.584 1.331.763.355.136.721.238 1.094.305.228.042.459.064.691.068l.208-.004Z" fill="#263238"/><path fill-rule="evenodd" clip-rule="evenodd" d="M174.747 151.792c.012.035.022.07.03.106l.076.305c.064.272.14.674.268 1.183.127.509.424 1.081.699 1.79.307.794.573 1.603.797 2.425.255.911.479 1.925.717 3.006.199 1.158.56 2.283 1.073 3.341.275.556.589 1.119.848 1.734.243.631.404 1.291.479 1.963.165 1.39.403 2.77.712 4.134l1.874 7.891c.594 2.421 1.132 4.605 1.582 6.445.449 1.84.797 3.303 1.047 4.346.114.5.208.899.275 1.187l.064.31a.47.47 0 0 1 0 .106.418.418 0 0 1-.038-.102l-.089-.306c-.076-.284-.178-.678-.314-1.174-.267-1.039-.644-2.514-1.115-4.329s-1.013-4.015-1.624-6.432c-.611-2.417-1.23-5.088-1.904-7.903a38.413 38.413 0 0 1-.712-4.151 8.022 8.022 0 0 0-.462-1.913c-.238-.602-.547-1.161-.823-1.721a12.78 12.78 0 0 1-1.068-3.392c-.229-1.09-.445-2.099-.687-3.006a28.12 28.12 0 0 0-.763-2.426c-.259-.703-.543-1.272-.666-1.81s-.178-.92-.233-1.196l-.051-.309a.435.435 0 0 1 .008-.102Z" fill="#263238"/><path fill-rule="evenodd" clip-rule="evenodd" d="M184.703 192.072c-2.226-1.34-2.841-5.368-1.895-7.785.945-2.416 2.582-4.617 2.849-7.208.203-1.98-.424-4.023.038-5.961.64-2.612 3.206-4.626 3.193-7.318 0-1.51-.848-2.934-.785-4.444.098-1.848 1.527-3.307 2.413-4.935 1.361-2.485 1.467-5.436 1.942-8.23.475-2.794 1.56-5.783 4.049-7.144.352 2.378.967 4.006.751 7.208-.077 1.153-1.429 3.358-1.629 5.889-.118 1.514-.199 3.027-.301 4.541-.101 1.514-.203 2.968-.737 4.35-.424 1.056-1.069 2.01-1.374 3.1-.581 2.048.152 4.278-.318 6.36-.394 1.759-1.624 3.264-1.883 5.054-.364 2.506 1.247 5.122.399 7.513-.424 1.183-1.399 2.12-1.696 3.358-.221.95 0 1.959-.195 2.913-.322 1.539-3.265 2.722-4.834 2.616" fill="#1A4F8B"/><path fill-rule="evenodd" clip-rule="evenodd" d="M195.888 141.408a.618.618 0 0 1 0 .136l-.051.39c-.055.343-.114.848-.233 1.497-.119.648-.471 1.39-.746 2.277a44.801 44.801 0 0 0-.848 3.048c-.272 1.145-.479 2.409-.713 3.77a15.79 15.79 0 0 1-1.166 4.24c-.318.708-.674 1.42-.941 2.179a9.905 9.905 0 0 0-.483 2.408 47.948 47.948 0 0 1-.683 5.19c-.704 3.515-1.374 6.86-1.98 9.909-.606 3.048-1.221 5.77-1.696 8.056-.475 2.285-.89 4.138-1.166 5.436a101.863 101.863 0 0 1-.42 1.861c-.01.043-.023.086-.038.127a.479.479 0 0 1 0-.131c.021-.102.043-.229.072-.39l.289-1.484 1.098-5.453c.475-2.302 1.034-5.041 1.662-8.081.627-3.041 1.272-6.394 1.963-9.905a49.74 49.74 0 0 0 .683-5.173c.065-.837.233-1.663.5-2.459.275-.772.636-1.488.954-2.192.583-1.343.979-2.76 1.174-4.211.238-1.356.467-2.624.738-3.769.239-1.031.529-2.05.869-3.053.289-.89.641-1.619.78-2.26.14-.64.204-1.144.272-1.484.03-.161.055-.288.076-.385.021-.098.034-.094.034-.094Z" fill="#263238"/></g></svg>