<svg viewBox="0 0 26 26" xmlns="http://www.w3.org/2000/svg"><mask id="a" style="mask-type:alpha" maskUnits="userSpaceOnUse" x="0" y="0" ><path d="M.035.5h25.073v25H.035V.5Z" fill="#fff"/></mask><g mask="url(#a)"><path fill-rule="evenodd" clip-rule="evenodd" d="M12.571 3.625c-3.02 0-5.484 2.457-5.484 5.469 0 1.87.955 3.53 2.4 4.516a7.807 7.807 0 0 0-4.75 7.203h1.566c0-3.489 2.77-6.25 6.268-6.25 3.499 0 6.269 2.761 6.269 6.25h1.567a7.807 7.807 0 0 0-4.75-7.203 5.472 5.472 0 0 0 2.4-4.516c0-3.012-2.465-5.469-5.486-5.469Zm0 1.563a3.9 3.9 0 0 1 3.918 3.906A3.9 3.9 0 0 1 12.571 13a3.9 3.9 0 0 1-3.917-3.906 3.9 3.9 0 0 1 3.917-3.906Z"/></g></svg>