<?xml version="1.0" encoding="utf-8"?><svg viewBox="0 0 212 212" fill="none" xmlns="http://www.w3.org/2000/svg" width="212" height="212"><mask id="ca" style="mask-type:alpha" maskUnits="userSpaceOnUse" x="0" y="0" width="212" height="212"><path fill="#fff" d="M0 0h212v212H0z"/></mask><g mask="url(#ca)"><path fill-rule="evenodd" clip-rule="evenodd" d="M80.412 105.948a10.032 10.032 0 10-.119-15.744l-2.196-1.696-3.27 1.022.374-3.269-2.756-2.141-3.265 1.018.373-3.27-2.37-1.84-1.993.62.229-1.993-1.395-1.086-3.13.305-.423 4.809 16.392 12.74a10.041 10.041 0 003.549 10.525zm11.944-3.422a2.874 2.874 0 11-.509-4.037 2.883 2.883 0 01.509 4.037zm1.268-34.9a5.372 5.372 0 10-8.43-.144l-.945 1.154.504 1.763-1.746-.241-1.175 1.45.505 1.764-1.743-.246-1.018 1.246.306 1.073-1.065-.148-.589.725.123 1.696 2.57.288 7.03-8.612a5.376 5.376 0 005.673-1.768zm-1.697-6.436a1.54 1.54 0 11-2.166.216 1.535 1.535 0 012.183-.216h-.017z" fill="#EBEBEB"/><path fill-rule="evenodd" clip-rule="evenodd" d="M70.944 31.205v31.113H26.25l-1.607-30.897 46.3-.216z" fill="#E0E0E0"/><path fill="#fff" d="M24.643 62.254V31.42h44.693v30.833z"/><path fill-rule="evenodd" clip-rule="evenodd" d="M69.536 62.466H24.431V31.21h45.105v31.257zm-44.69-.424h44.266V31.633H24.855l-.009 30.41z" fill="#E0E0E0"/><path fill="#fff" d="M29.481 35.25h35.01v23.172h-35.01z"/><path fill-rule="evenodd" clip-rule="evenodd" d="M64.495 35.25h-.675l-1.917.038h-7.208l-25.202.05.101-.1v23.17l-.11-.11 35.014.026-.09.085c0-7.051.035-12.83.048-16.859 0-2.014 0-3.582.02-4.664v-1.649 6.296c0 4.041.03 9.841.047 16.914v.089H29.316V35.148h.101l25.27.05 7.209.03h2.391l.208.022z" fill="#E0E0E0"/><path fill-rule="evenodd" clip-rule="evenodd" d="M24.639 31.332c.276.136.535.304.771.5.458.331 1.077.797 1.752 1.336a39.455 39.455 0 011.696 1.429c.24.19.454.41.64.653-.043.047-1.115-.848-2.46-1.908a25.084 25.084 0 01-2.4-2.01zm44.693.089a21.98 21.98 0 01-2.34 2.001 22.117 22.117 0 01-2.489 1.828 22.07 22.07 0 012.35-2.002 21.895 21.895 0 012.48-1.827z" fill="#E0E0E0"/><path fill-rule="evenodd" clip-rule="evenodd" d="M69.299 62.259l-4.982-4.041 4.982 4.04z" fill="#fff"/><path fill-rule="evenodd" clip-rule="evenodd" d="M64.317 58.218a23.75 23.75 0 012.544 1.933c.853.652 1.662 1.36 2.42 2.12a23.293 23.293 0 01-2.543-1.933 22.476 22.476 0 01-2.421-2.12zm-39.678 4.036a21.527 21.527 0 012.328-1.98 21.879 21.879 0 012.463-1.81c-.724.718-1.5 1.381-2.324 1.984a21.51 21.51 0 01-2.467 1.806zM36.591 50.23v-7.76h22.03v7.76h-22.03z" fill="#E0E0E0"/><path fill-rule="evenodd" clip-rule="evenodd" d="M181.896 208.043c0 .114-36.413.212-81.323.212s-81.336-.098-81.336-.212c0-.115 36.409-.212 81.336-.212s81.323.097 81.323.212z" fill="#263238"/><path fill-rule="evenodd" clip-rule="evenodd" d="M147.887 192.592l10.494 15.26 3.752.089-6.877-15.692-7.369.343zm-110.737.776l-5.528 14.416h2.764l9.655-14.352-6.89-.064z" fill="#263238"/><path fill-rule="evenodd" clip-rule="evenodd" d="M34.768 140.991l.424 18.656a4.927 4.927 0 004.817 4.821l104.384 2.324a4.932 4.932 0 005.041-4.932v-22.472a13.274 13.274 0 00-11.447-13.143c-19.11-2.629-58.512-6.67-90.376-.929a15.59 15.59 0 00-12.843 15.675z" fill="#1A4F8B"/><path fill-rule="evenodd" clip-rule="evenodd" d="M34.31 147.508s-8.599-3.981-10.358 0c-1.76 3.981.216 8.866 2.15 11.588 1.933 2.722 1.924 36.354 1.924 36.354l130.414-1.395 1.544-32.339s6.254-7.704 5.864-11.024c-.391-3.32-5.669-8.153-11.728-3.197-6.059 4.957-7.632 15.315-7.632 15.315l-103.978.785s.356-14.548-8.2-16.087z" fill="#1A4F8B"/><path fill-rule="evenodd" clip-rule="evenodd" d="M145.169 169.374c0 .114-23.104.212-51.597.212-28.492 0-51.596-.074-51.596-.212 0-.139 23.095-.212 51.597-.212 28.501 0 51.596.114 51.596.212z" fill="#263238"/><path fill-rule="evenodd" clip-rule="evenodd" d="M41.976 183.518a.311.311 0 010-.101v-.301c0-.266-.009-.652-.026-1.158v-4.24c0-3.587.026-8.544-.14-13.992a59.483 59.483 0 00-.593-7.666c-.076-.28-.153-.56-.225-.848-.072-.288-.212-.53-.322-.788a19.592 19.592 0 00-.704-1.467 15.559 15.559 0 00-1.586-2.438 11.28 11.28 0 00-1.696-1.696 9.153 9.153 0 00-1.522-.984 15.493 15.493 0 00-1.437-.577h.097l.293.081c.374.107.737.249 1.085.424a8.328 8.328 0 011.56.962 11.09 11.09 0 011.73 1.696c.62.763 1.166 1.584 1.629 2.451.258.466.492.958.72 1.475.115.259.221.526.327.793l.242.848c.378 2.552.583 5.125.614 7.704.166 5.47.11 10.427.077 14.014a2589.11 2589.11 0 00-.06 4.24v1.454c-.063.076-.063.114-.063.114zm-8.679-28.505a.61.61 0 01.343-.106 1.497 1.497 0 011.425.797c.127.248.17.531.123.806a1.582 1.582 0 01-1.217 1.314 1.611 1.611 0 01-1.611-.767 1.46 1.46 0 01-.208-.789 1.628 1.628 0 01.92-1.382.734.734 0 01.352-.089c0 .021-.123.051-.314.165-.267.165-.48.404-.615.687a1.31 1.31 0 00.051 1.272c.297.475.844.732 1.4.657A1.395 1.395 0 0035 156.463a1.199 1.199 0 00-.483-1.174 1.424 1.424 0 00-.848-.31c-.246.013-.37.055-.373.034z" fill="#263238"/><path fill-rule="evenodd" clip-rule="evenodd" d="M33.886 163.383a2.013 2.013 0 01-.59-.696 4.168 4.168 0 01-.05-4.24c.135-.277.33-.52.572-.712.03.025-.19.293-.424.784a4.51 4.51 0 00-.475 2.053c.012.712.19 1.412.522 2.043.246.484.479.746.445.768zm-1.366-12.589a3.574 3.574 0 01-.127.636 3.91 3.91 0 00.62 2.913c.137.167.263.342.377.526 0 0-.237-.119-.505-.424a3.43 3.43 0 01-.661-3.053 1.35 1.35 0 01.297-.598zm-2.539 4.69c.05-.043.445.356 1.047.665.602.31 1.15.424 1.14.475a1.856 1.856 0 01-1.241-.28 1.894 1.894 0 01-.946-.86zm128.96 28.136c0 .114-29.413.212-65.695.212s-65.686-.098-65.686-.212c0-.114 29.409-.212 65.72-.212s65.661.09 65.661.212z" fill="#263238"/><path fill-rule="evenodd" clip-rule="evenodd" d="M144.817 162.933c.122 0 .212 4.605.212 10.282 0 5.678-.09 10.291-.212 10.291s-.212-4.605-.212-10.291.098-10.282.212-10.282zm-43.651-35.578h-.203l-.594.022-2.277.063-8.386.195-27.662.556c-2.7.063-5.342.055-7.878.224a26.581 26.581 0 00-7.178 1.311 12.657 12.657 0 00-5.436 3.591 11.958 11.958 0 00-1.696 2.459 15.7 15.7 0 00-1.039 2.544 24.017 24.017 0 00-.848 4.664c-.131 1.399-.144 2.608-.152 3.6-.009.992 0 1.755.03 2.277v.797-.204c0-.135 0-.339-.035-.593a53.705 53.705 0 01-.067-2.277c-.009-1.005 0-2.205.114-3.613.125-1.594.409-3.172.848-4.71.268-.893.615-1.759 1.035-2.591a11.934 11.934 0 011.696-2.51 12.83 12.83 0 015.511-3.646 26.418 26.418 0 017.209-1.336c2.544-.17 5.19-.165 7.89-.229l27.666-.492 8.383-.123 2.281-.025h.593l.195.046zM67.78 141.882s-.14.067-.356.233a1.936 1.936 0 00-.657.92 1.628 1.628 0 00.233 1.573 1.696 1.696 0 003.1-.738 1.646 1.646 0 00-.5-1.514 1.951 1.951 0 00-1.001-.521c-.267-.047-.424-.03-.424-.047a.816.816 0 01.424-.038c.704.081 1.31.532 1.59 1.183.125.309.159.648.097.975a1.913 1.913 0 01-3.46.823 1.759 1.759 0 01-.351-.912 1.95 1.95 0 01.131-.848c.145-.385.41-.713.755-.937a.847.847 0 01.42-.152z" fill="#263238"/><path fill-rule="evenodd" clip-rule="evenodd" d="M65.996 152.867a5.126 5.126 0 01-.323-1.272 7.207 7.207 0 01.068-3.129 4.279 4.279 0 011.828-2.518c.273-.169.572-.291.886-.361a.87.87 0 01.347-.034 5.43 5.43 0 00-1.153.526 4.35 4.35 0 00-1.696 2.447 7.912 7.912 0 00-.127 3.044c.102.806.203 1.289.17 1.297zm1.543-17.515c-.225.299-.433.61-.623.933a3.715 3.715 0 001.09 4.783c.311.21.635.401.97.572a.764.764 0 01-.305-.064 3.285 3.285 0 01-.755-.381 3.69 3.69 0 01-1.14-4.995 3.24 3.24 0 01.517-.67c.144-.148.237-.208.246-.178zm-.39 8.48a21.49 21.49 0 00-2.298.517 22.26 22.26 0 00-2.146.975 6.136 6.136 0 014.444-1.492z" fill="#263238"/><path fill-rule="evenodd" clip-rule="evenodd" d="M53.45 169.671a21.317 21.317 0 0014.415 4.346 12773.03 12773.03 0 00-3.214 14.954c-.284 1.327-.55 2.807.145 3.977.975 1.641 3.243 1.802 5.151 1.777 2.12-.03 4.334-.081 6.216-1.065 2.667-1.39 4.1-4.341 5.135-7.165 1.034-2.824 1.929-5.851 4.057-7.976a16.535 16.535 0 009.392 5.347c1.06.195 2.264.254 3.112-.424.848-.678 1.09-1.874.874-2.926a8.77 8.77 0 00-1.387-2.878l-6.207-9.625c-.848-1.302-1.756-2.676-3.176-3.295-1.115-.487-2.379-.424-3.591-.369a165.869 165.869 0 00-30.05 4.541" fill="#000" opacity=".3"/><path fill-rule="evenodd" clip-rule="evenodd" d="M86.615 121.954c-2.51 6.631-11.872 8.153-15.175 14.416-3.252 6.207.78 14.416-2.57 20.589-1.242 2.281-3.392 3.981-4.588 6.279-.814 1.544-1.233 3.392-2.543 4.533-1.535 1.336-3.914 1.31-5.758.445-1.845-.865-3.261-2.417-4.575-3.973-2.46-2.917-4.77-6.071-5.936-9.713-1.976-6.263-.161-13.348 3.816-18.58 3.977-5.232 9.866-8.764 16.086-10.88 6.22-2.116 12.8-2.913 19.343-3.528" fill="#000" opacity=".3"/><path fill-rule="evenodd" clip-rule="evenodd" d="M56.468 104.514a10.299 10.299 0 013.816-3.523 6.749 6.749 0 015.088-.513 5.054 5.054 0 013.392 3.663c.267 1.361-.097 2.879.607 4.075.805 1.374 2.751 1.806 3.438 3.248a3.134 3.134 0 01-.207 2.769 8.61 8.61 0 01-1.862 2.179 4.55 4.55 0 011.162 1.043c.327.421.42.979.246 1.484a2.18 2.18 0 01-1.272 1.018 12.528 12.528 0 01-7.5.703c-.67-.144-1.438-.326-1.99.081" fill="#263238"/><path fill-rule="evenodd" clip-rule="evenodd" d="M73.441 109.547l-1.361 4.151 9.269 5.262-9.328.301.695 7.56 17.956-4.409s1.077-7.323-17.231-12.865l-1.272-.305a1.454 1.454 0 01-1.022-.886 1.573 1.573 0 00-.763-.818l-1.53-.798v1.213l.847.988-.135 2.345a2.12 2.12 0 001.628 2.213l.848.199" fill="#B78876"/><path fill-rule="evenodd" clip-rule="evenodd" d="M53.136 124.557c-.37 0-3.791.848-5.75 3.324s-4.791 11.847-4.791 11.847l7.208 1.246 3.112 7.815s18.423-2.413 17.444-3.392a37.581 37.581 0 00-2.968-2.464l4.24-14.123 5.088-2.748L75 119.007l-10.248 1.386-11.617 4.164z" fill="#FAFAFA"/><path fill-rule="evenodd" clip-rule="evenodd" d="M70.749 132.176c0 .114-5.746.212-12.826.212-7.081 0-12.83-.098-12.83-.212 0-.114 5.744-.212 12.83-.212 7.085 0 12.826.098 12.826.212zm-1.149 4.151c0 .114-5.746.212-12.826.212-7.081 0-12.83-.098-12.83-.212 0-.114 5.74-.212 12.83-.212 7.089 0 12.826.098 12.826.212zm0 4.478c0 .12-4.35.216-9.719.216-5.367 0-9.713-.096-9.713-.216s4.35-.208 9.713-.208c5.364 0 9.719.096 9.719.208zm1.488 4.324c0 .115-4.35.212-9.714.212-5.364 0-9.714-.097-9.714-.212 0-.114 4.346-.212 9.714-.212s9.714.09 9.714.212zm4.6-18.537c0 .122-2.874.212-6.415.212-3.54 0-6.42-.09-6.42-.212s2.871-.212 6.42-.212 6.415.131 6.415.212zm.466-4.498c0 .073-2.861.204-6.39.296-3.527.091-6.397.116-6.397.048s2.858-.203 6.39-.3c3.531-.097 6.397-.111 6.397-.044z" fill="#1A4F8B"/><path fill-rule="evenodd" clip-rule="evenodd" d="M51.304 134.228a28.25 28.25 0 01-.691 3.469c-.23 1.158-.532 2.3-.903 3.421a28.62 28.62 0 01.687-3.468c.228-1.159.531-2.302.907-3.422z" fill="#263238"/><path fill-rule="evenodd" clip-rule="evenodd" d="M71.36 187.169l-5.369 16.93 6.47.653 6.08-14.712-7.182-2.871z" fill="#B78876"/><path fill-rule="evenodd" clip-rule="evenodd" d="M76.095 198.163l-3.082 7.632s6.733 5.703 6.3 7.17l-15.035-5.431 4.312-12.11 7.505 2.739z" fill="#455A64"/><path fill-rule="evenodd" clip-rule="evenodd" d="M68.599 203.472a.653.653 0 00-.678.547.627.627 0 00.534.678.69.69 0 00.716-.581c0-.322-.318-.691-.636-.644m-4.257 4.062l.484-1.204L79 212.003s.564.53.313.975l-15.035-5.444z" fill="#E0E0E0"/><path fill-rule="evenodd" clip-rule="evenodd" d="M73.284 205.821c-.03.072-.424-.026-.848.076s-.75.348-.805.293c-.055-.055.203-.424.746-.556.543-.131.945.123.907.187zm1.34 1.221c0 .08-.373.089-.733.309-.36.221-.539.505-.624.505-.085 0 .03-.462.484-.725.453-.263.898-.157.873-.089zm.212 2.213c-.072 0-.042-.424.293-.746.334-.322.737-.369.746-.297.008.072-.284.212-.551.488-.267.275-.412.576-.488.555zm-1.06-5.253c-.055.055-.356-.17-.78-.293-.424-.123-.797-.106-.814-.182-.017-.076.394-.229.89-.076.496.152.776.504.704.551zm.61-1.556a1.53 1.53 0 01-.75-.276 3.421 3.421 0 01-.7-.53 3.02 3.02 0 01-.352-.386.97.97 0 01-.16-.258.34.34 0 01.105-.403.424.424 0 01.382-.051 1.2 1.2 0 01.271.14c.151.097.293.208.424.331.213.207.392.446.53.708.152.228.23.498.22.771-.041 0-.126-.279-.385-.674a3.113 3.113 0 00-.92-.911c-.144-.098-.28-.149-.344-.094-.063.055-.03.034 0 .089a.918.918 0 00.124.191c.097.13.202.254.313.373.193.199.403.381.628.543.215.131.42.277.614.437z" fill="#263238"/><path fill-rule="evenodd" clip-rule="evenodd" d="M74.25 202.518a1.274 1.274 0 01.069-.802c.14-.454.402-.86.759-1.174a.667.667 0 01.614-.208c.136.054.23.181.242.327a.986.986 0 01-.025.305 1.743 1.743 0 01-.183.505 1.811 1.811 0 01-.602.661c-.424.284-.776.263-.771.233.226-.115.446-.244.657-.386a1.834 1.834 0 00.64-1.047c.034-.165.021-.318-.047-.322a.574.574 0 00-.352.152 2.544 2.544 0 00-.335.34 3.049 3.049 0 00-.423.699c-.174.416-.195.721-.242.717z" fill="#263238"/><path fill-rule="evenodd" clip-rule="evenodd" d="M91.732 171.231l8.014 13.928 6.555-4.206-8.048-14.14-6.52 4.418z" fill="#B78876"/><path fill-rule="evenodd" clip-rule="evenodd" d="M104.037 176.972l4.142 7.14s8.633-1.815 9.528-.572l-13.535 8.522-6.906-10.85 6.771-4.24z" fill="#455A64"/><path fill-rule="evenodd" clip-rule="evenodd" d="M103.621 186.151a.651.651 0 000 .87c.24.22.608.22.848 0a.69.69 0 00-.021-.925.658.658 0 00-.899.106m.623 5.852l-.652-1.12 13.22-7.751s.767-.118.967.348l-13.535 8.523z" fill="#E0E0E0"/><path fill-rule="evenodd" clip-rule="evenodd" d="M108.353 183.896c.038.068-.271.305-.462.721-.191.415-.191.805-.267.818-.076.013-.221-.424 0-.933.22-.509.704-.678.729-.606zm1.789-.31c.055.055-.161.348-.207.772-.047.424.072.755 0 .793-.073.038-.344-.305-.276-.848.068-.543.441-.776.483-.717zm1.879 1.192c-.055.055-.352-.217-.424-.687-.072-.471.161-.806.224-.772.064.034 0 .352.047.738s.212.674.153.721zm-4.791-2.404c0 .08-.352.178-.709.424-.356.246-.572.559-.644.525-.072-.034.064-.449.488-.75s.865-.271.865-.199zm-.861-1.421c0 .026-.216.233-.679.424a3.881 3.881 0 01-.848.229 4.785 4.785 0 01-.521.038 1.01 1.01 0 01-.305-.034.337.337 0 01-.25-.33.42.42 0 01.195-.335 1.15 1.15 0 01.275-.123 2.767 2.767 0 011.395-.106c.5.093.763.275.746.301-.017.025-.296-.072-.767-.11a3.244 3.244 0 00-.823.042 2.862 2.862 0 00-.462.123c-.169.055-.292.131-.288.216.004.085 0 .043.063.068.074.017.15.024.225.021.439.006.877-.055 1.298-.182.242-.099.492-.18.746-.242z" fill="#263238"/><path fill-rule="evenodd" clip-rule="evenodd" d="M106.343 181.102c0 .025-.296-.132-.593-.543a2.532 2.532 0 01-.373-.802 2.741 2.741 0 01-.089-.517.666.666 0 01.22-.615.378.378 0 01.399 0c.085.057.162.126.229.204.116.139.213.293.288.458.121.277.171.58.148.882-.042.517-.267.771-.288.75a6.82 6.82 0 00.098-.754 1.859 1.859 0 00-.187-.772 1.592 1.592 0 00-.259-.386c-.11-.127-.237-.212-.284-.161a.45.45 0 00-.097.369c.007.16.029.318.063.475.063.265.163.521.297.759.229.415.458.619.428.653zm-38.465-11.83l15.739-10.702 9.926 19.322 9.023-4.889s-10.393-25.355-14.124-26.161c-2.09-.458-26.063 4.117-26.063 4.117l-2.68-1.344-6.784-.826-.424 1.098a23.142 23.142 0 00.755 18.707l.33.674 14.302.004z" fill="#263238"/><path fill-rule="evenodd" clip-rule="evenodd" d="M62.353 155.882c.12.53 13.144 12.72 13.144 12.72l-7.504 25.224 11.202 2.141 11.248-30.384-20.56-20.169-9.408 3.93 1.878 6.538z" fill="#263238"/><path fill-rule="evenodd" clip-rule="evenodd" d="M83.617 158.566c.034.051-3.464 2.485-7.806 5.44-4.342 2.955-7.895 5.308-7.933 5.266-.038-.042 3.46-2.489 7.806-5.444s7.895-5.313 7.933-5.262z" fill="#455A64"/><path fill-rule="evenodd" clip-rule="evenodd" d="M91.694 174.288a3.709 3.709 0 01-.381-.581 65.778 65.778 0 01-.95-1.641 157.871 157.871 0 01-2.93-5.512 221.504 221.504 0 01-2.76-5.609 93.262 93.262 0 01-.797-1.722 3.53 3.53 0 01-.26-.644c.129.193.242.396.34.606l.848 1.696c.738 1.463 1.726 3.417 2.816 5.584a281.03 281.03 0 002.87 5.546c.36.683.661 1.247.89 1.675.12.192.225.393.314.602zm-13.86-10.197c-.335.93-.737 1.834-1.205 2.705a20.147 20.147 0 01-1.403 2.603 39.745 39.745 0 012.608-5.308z" fill="#455A64"/><path fill-rule="evenodd" clip-rule="evenodd" d="M42.595 139.728l-2.544 9.396a4.9 4.9 0 00.424 3.616 4.927 4.927 0 005.448 2.464l20.162-4.965-2.12-4.189-15.883 1.378 1.696-6.454-7.183-1.246z" fill="#B78876"/><path fill-rule="evenodd" clip-rule="evenodd" d="M51.537 153.987l.263-1.365 10.927-1.964 3.175-16.845 20.293-2.417-3.41 17.982-31.248 4.609z" fill="#455A64"/><path fill-rule="evenodd" clip-rule="evenodd" d="M75.014 142.886a1.143 1.143 0 01-.66-2.041 1.144 1.144 0 011.835 1.113 1.064 1.064 0 01-1.175.928z" fill="#EBEBEB"/><path fill-rule="evenodd" clip-rule="evenodd" d="M54.505 105.672l.038 1.217.458 18.232c.055 2.12 1.917 3.757 4.18 3.68 2.29-.072 4.13-1.865 4.114-4.007-.022-2.243 0-4.608 0-4.608s2.887-.514 3.442-4.296c.276-1.878.145-4.956-.042-7.47a3.983 3.983 0 00-4.44-3.664l-7.75.916z" fill="#B78876"/><path fill-rule="evenodd" clip-rule="evenodd" d="M65.232 110.535a.487.487 0 01-.462.496.459.459 0 01-.5-.424.488.488 0 01.458-.496.467.467 0 01.504.424zm.814-.492c-.059.064-.424-.203-.95-.199-.525.004-.898.276-.958.212-.059-.063.034-.144.2-.267.223-.158.49-.244.763-.246a1.31 1.31 0 01.759.233c.161.136.216.238.186.267zm-5.953.679a.483.483 0 01-.462.496.467.467 0 01-.504-.424.484.484 0 01.462-.492.46.46 0 01.505.42zm.836-.522c-.06.064-.424-.203-.95-.199-.526.004-.899.276-.958.212-.06-.064.03-.144.195-.267a1.35 1.35 0 01.767-.246c.27-.003.534.079.755.233.161.123.22.238.19.267zm1.933 3.838a3.5 3.5 0 01.848-.162c.136 0 .259-.042.28-.135a.66.66 0 00-.093-.39l-.403-1.009a17.375 17.375 0 01-.916-2.638c.445.815.821 1.666 1.124 2.544l.39 1.014c.084.16.11.344.076.521a.34.34 0 01-.216.199.935.935 0 01-.23.034 3.308 3.308 0 01-.86.022z" fill="#263238"/><path fill-rule="evenodd" clip-rule="evenodd" d="M63.295 120.198a9.585 9.585 0 01-5.088-1.272s1.272 2.578 5.028 2.18l.06-.908z" fill="#AA6550"/><path fill-rule="evenodd" clip-rule="evenodd" d="M61.136 109.34c-.055.14-.572.05-1.187.093-.615.042-1.115.191-1.191.059-.034-.063.06-.191.263-.318.272-.16.579-.251.894-.267.314-.024.63.027.92.149.22.101.327.22.301.284zm4.694-1.124c-.093.119-.454 0-.882 0s-.797.089-.882-.034c-.084-.123 0-.178.174-.292.437-.282 1-.271 1.425.029.152.136.203.259.165.297z" fill="#263238"/><path fill-rule="evenodd" clip-rule="evenodd" d="M62.807 115.924a.877.877 0 01-.454-.046l-.424-.119c-.118-.038-.25-.093-.398-.148a.85.85 0 01-.39-.234c-.09-.114-.072-.318.131-.5a1.097 1.097 0 011.696.564c.09.267-.02.445-.16.483z" fill="#AA6550"/><path fill-rule="evenodd" clip-rule="evenodd" d="M62.88 115.878c-.052.038-.306-.484-.917-.641a2.232 2.232 0 00-1.106.123s.068-.135.275-.241a1.276 1.276 0 011.62.415c.131.191.153.335.127.344zm-4.008-12.657a4.753 4.753 0 01-.682 5.936c-.904.848-2.248 1.497-2.337 2.727-.101 1.361 1.476 2.378 1.476 3.744 0 1.365-1.615 2.298-1.934 3.667-.254 1.103.424 2.205 1.17 3.04.747.835 1.697 1.573 2.12 2.608a4.628 4.628 0 01-.127 3.633 11.47 11.47 0 01-2.12 3.049 14.329 14.329 0 00-3.493-.776c.072-.449.148-.903.224-1.352a1.241 1.241 0 01-.911 1.144 3.345 3.345 0 01-1.56.022 25.433 25.433 0 01-4.664-1.2 8.395 8.395 0 001.696-2.12 2.828 2.828 0 00.046-2.629c-.373-.636-1.06-1.043-1.403-1.696-.513-.975-.09-2.213.64-3.04s1.721-1.366 2.59-2.044c.87-.678 1.667-1.594 1.735-2.697.093-1.424-1.064-2.726-.92-4.146.16-1.62 1.874-2.612 2.544-4.096.487-1.073.424-2.396 1.17-3.307a2.843 2.843 0 012.345-.933 5.277 5.277 0 012.442.848m4.681 17.002c-.678.373-.64 1.412-.225 2.069.416.658 1.081 1.128 1.493 1.79a2.933 2.933 0 01-.691 3.739l1.628.615.356-.199 1-.568-.47 1.157h1.043a2.966 2.966 0 002.45-4.727c-.423-.594-1.093-1.065-1.242-1.781-.173-.869.484-1.654.802-2.476a3.498 3.498 0 00-1.137-3.956" fill="#263238"/><path fill-rule="evenodd" clip-rule="evenodd" d="M31.482 86.29a.572.572 0 01.318.514v2.824a.564.564 0 01-.225.45.551.551 0 01-.496.093c-.47-.12-.97-.044-1.382.211-.38.218-.654.583-.755 1.01-.076.433.028.879.289 1.234.27.401.69.68 1.166.771a2.12 2.12 0 002.221-1.437.565.565 0 111.077.343 3.26 3.26 0 01-3.477 2.213 2.9 2.9 0 01-1.92-1.246 2.764 2.764 0 01-.467-2.12 2.722 2.722 0 011.272-1.747 2.969 2.969 0 011.556-.424v-2.175c0-.314.255-.568.569-.568.088 0 .174.018.254.055zm-.78-1.186a.462.462 0 11.924-.017.462.462 0 01-.924.017z" fill="#1A4F8B"/><path fill-rule="evenodd" clip-rule="evenodd" d="M44.52 100.224s-.14 0-.373.118c-.32.138-.589.37-.772.666a1.6 1.6 0 00-.241.67c-.033.274.016.551.14.797a1.556 1.556 0 002.917-.17 1.4 1.4 0 00.046-.809 1.702 1.702 0 00-.318-.641 1.734 1.734 0 00-.848-.576c-.241-.068-.386-.06-.386-.072h.102a.676.676 0 01.127 0 .84.84 0 01.166.025 1.7 1.7 0 01.916.568c.167.193.287.423.351.67.07.281.057.575-.038.848a1.75 1.75 0 01-.542.793 1.65 1.65 0 01-.954.394c-.352.014-.7-.084-.992-.28a1.755 1.755 0 01-.636-.72 1.544 1.544 0 01-.14-.848c.035-.254.128-.496.27-.708.204-.31.501-.547.849-.675.054-.019.11-.034.165-.046a.512.512 0 01.123-.021.23.23 0 01.068.017zm4.138 4.1s-.089.021-.229.084a1.093 1.093 0 00-.487.424.921.921 0 00-.06.908.962.962 0 001.802-.106.916.916 0 00-.165-.895 1.082 1.082 0 00-.534-.364c-.149-.047-.238-.043-.238-.056a.505.505 0 01.25 0c.395.094.706.395.815.785a.994.994 0 010 .555 1.07 1.07 0 01-2.006.119.942.942 0 01-.089-.551 1.092 1.092 0 01.717-.874.52.52 0 01.224-.029zM43.85 91.82v-1.298c0-.17-.025-.352-.038-.55-.013-.2-.03-.425-.05-.645a2.065 2.065 0 00-.047-.352l-.064-.373a12.573 12.573 0 00-1.175-3.583 13.035 13.035 0 00-3.006-3.939l-.53-.462c-.186-.144-.386-.28-.58-.424l-.302-.212a1.825 1.825 0 00-.305-.204l-.653-.394c-.11-.064-.216-.132-.33-.19l-.353-.162-.708-.322c-.246-.102-.5-.178-.75-.267l-.382-.132-.195-.063-.2-.047a12.73 12.73 0 00-1.627-.318c-.28-.03-.564-.08-.848-.097l-.848-.026h-.424l-.424.034c-.297.025-.594.034-.886.072a13.8 13.8 0 00-1.777.373l-.445.127c-.072 0-.148.039-.22.064l-.217.085-.873.339c-.284.127-.564.28-.848.424-.14.076-.284.136-.424.22l-.424.26a14.18 14.18 0 00-1.573 1.14l-.717.674-.182.17-.166.186-.326.377-.33.373-.298.425-.292.424-.149.207a5.435 5.435 0 00-.131.217l-.513.886c-.14.31-.284.619-.424.932a12.911 12.911 0 00-.64 8.21l.28.991.369.95.093.237.114.225.23.454.224.445.271.424.267.424.132.208.152.195.607.78c.428.487.888.944 1.378 1.37l.36.318c.119.106.255.19.382.284.258.182.509.377.771.547l.806.449.2.119.211.097.424.191c.551.251 1.118.467 1.696.645.289.084.581.139.848.212l.424.101c.145.03.289.038.424.06l.848.11c.284.03.568 0 .848.034.555.019 1.11-.001 1.662-.06h.204l.2-.033.398-.068c.263-.051.526-.085.78-.149l.755-.208.373-.101.356-.14.7-.272c.115-.041.227-.092.335-.152l.33-.166c.217-.11.424-.212.64-.326l.594-.377a12.952 12.952 0 003.6-3.439c.106-.148.216-.293.318-.424l.263-.45.254-.423c.042-.073.085-.14.123-.213.038-.072.064-.148.098-.22l.381-.823c.11-.262.187-.53.276-.771l.127-.36c.042-.11.074-.224.098-.34l.152-.632c.043-.195.093-.373.123-.538.03-.165.042-.318.064-.454.034-.271.063-.475.084-.619.022-.144.034-.207.034-.207v.212l-.076.618c0 .136-.034.289-.055.454-.021.166-.076.348-.119.543-.042.195-.093.424-.144.632a2.09 2.09 0 01-.097.343c-.043.119-.081.238-.123.36-.09.246-.161.514-.276.78-.114.268-.246.54-.373.849l-.102.22c-.034.072-.08.144-.119.216-.084.14-.17.289-.254.424-.085.136-.174.301-.263.458-.089.157-.212.293-.318.446a13.004 13.004 0 01-3.617 3.417l-.597.382c-.208.114-.424.22-.645.33l-.326.17c-.11.059-.223.11-.34.153l-.708.275-.356.14-.373.106-.759.212c-.258.064-.526.098-.788.148l-.403.073-.2.033H32.2a11.95 11.95 0 01-1.67.068c-.285 0-.573 0-.849-.034l-.848-.11c-.148 0-.293-.03-.424-.063l-.424-.098c-.288-.072-.585-.127-.873-.212a13.018 13.018 0 01-1.696-.649l-.424-.19-.212-.098-.204-.119-.818-.475c-.263-.169-.518-.368-.776-.551-.132-.097-.267-.182-.386-.288l-.365-.318a14.292 14.292 0 01-1.454-1.39l-.615-.785-.152-.2-.136-.212-.267-.423-.272-.424-.229-.45-.233-.458-.114-.229-.102-.25c-.127-.318-.25-.64-.373-.958-.123-.318-.187-.666-.284-1a13.063 13.063 0 01.657-8.277l.424-.946c.174-.297.348-.594.517-.89.047-.072.085-.149.132-.22l.148-.209.301-.424.297-.423.335-.382.33-.377.166-.187.182-.174.725-.683a14.2 14.2 0 011.59-1.144l.424-.259c.136-.089.285-.148.424-.225.285-.14.564-.296.848-.424l.882-.343.22-.085.221-.064.45-.123a13.627 13.627 0 011.789-.373c.301-.038.598-.05.895-.076l.424-.03h.424l.873.026c.288 0 .568.068.848.102.554.068 1.103.177 1.641.326l.204.047c.063 0 .127.042.19.063l.386.132c.255.093.513.165.755.267l.763.373.352.161.335.19.653.382c.108.062.211.132.31.208l.3.217c.195.144.399.28.586.424l.534.466a13.074 13.074 0 013.023 3.99 12.39 12.39 0 011.162 3.604c.02.127.042.254.063.373.022.118.036.237.043.356 0 .229.034.445.046.644.013.2.03.386.034.556.005.17 0 .322 0 .462v.623l-.055.204z" fill="#263238"/><path fill="#fff" d="M100.81 28.979h87.535v132.877H100.81z"/><path fill="#F5F5F5" d="M100.632 35.746h87.56v57.185h-87.56z"/><path fill-rule="evenodd" clip-rule="evenodd" d="M122.023 101.008v1.272h1.87v.458h-1.87v1.509h-.534v-3.731h2.637v.492h-2.103zm2.425 1.84a1.472 1.472 0 111.471 1.446 1.407 1.407 0 01-1.471-1.446zm2.421 0a.954.954 0 10-.95.997.93.93 0 00.95-.997zm2.748-1.441v.496h-.119a.847.847 0 00-.89.954v1.407h-.513v-2.832h.491v.471a1.09 1.09 0 011.031-.496zm3.303.025v2.438c0 1.001-.505 1.45-1.463 1.45a2.07 2.07 0 01-1.348-.424l.241-.394c.311.243.695.374 1.09.369.666 0 .971-.31.971-.95v-.225a1.295 1.295 0 01-1.018.424 1.37 1.37 0 110-2.735c.402-.018.789.155 1.043.467v-.424l.484.004zm-.501 1.336a.974.974 0 00-1.946 0 .975.975 0 001.946 0zm1.217.08a1.472 1.472 0 111.472 1.446 1.408 1.408 0 01-1.472-1.446zm2.421 0a.954.954 0 10-.949.997.93.93 0 00.949-.997zm2.816 1.247a.986.986 0 01-.619.199.806.806 0 01-.895-.886v-1.552h-.483v-.424h.5v-.619h.509v.619h.81v.424h-.81v1.531a.422.422 0 00.424.474.644.644 0 00.398-.135l.166.369zm4.977-1.247a1.371 1.371 0 01-1.428 1.446 1.2 1.2 0 01-.984-.462v1.463h-.513v-3.863h.492v.445c.237-.313.612-.49 1.005-.475a1.376 1.376 0 011.428 1.446zm-.517 0a.954.954 0 10-.954.997.932.932 0 00.954-.997zm3.439-.292v1.696h-.492v-.374a1.054 1.054 0 01-.929.424c-.64 0-1.043-.343-1.043-.848 0-.504.293-.826 1.132-.826h.84v-.098c0-.424-.254-.683-.759-.683a1.423 1.423 0 00-.895.302l-.212-.382a1.86 1.86 0 011.166-.365c.755.005 1.192.378 1.192 1.154zm-.509.848v-.395h-.789c-.508 0-.653.2-.653.424 0 .225.234.458.624.458a.823.823 0 00.835-.496l-.017.009zm1.102.572l.212-.424c.296.191.641.293.993.293.474 0 .669-.145.669-.382 0-.636-1.785-.085-1.785-1.213 0-.504.454-.848 1.179-.848.36-.006.716.084 1.03.259l-.22.403a1.474 1.474 0 00-.814-.225c-.45 0-.666.165-.666.39 0 .666 1.789.123 1.789 1.221 0 .513-.466.848-1.221.848a2.038 2.038 0 01-1.166-.322zm2.672 0l.212-.424c.295.191.64.293.992.293.475 0 .67-.145.67-.382 0-.636-1.785-.085-1.785-1.213 0-.504.453-.848 1.178-.848.361-.006.716.084 1.031.259l-.221.403a1.47 1.47 0 00-.814-.225c-.449 0-.666.165-.666.39 0 .666 1.79.123 1.79 1.221 0 .513-.467.848-1.221.848a2.036 2.036 0 01-1.166-.322zm7.267-2.544l-1.056 2.824h-.492l-.814-2.12-.826 2.12h-.492l-1.065-2.824h.505l.823 2.247.848-2.247h.424l.848 2.26.848-2.26h.449zm.161 1.416a1.468 1.468 0 111.471 1.446 1.406 1.406 0 01-1.471-1.446zm2.417 0a.95.95 0 10-.946.997.928.928 0 00.946-.997zm2.747-1.441v.496h-.118a.844.844 0 00-.669.268.844.844 0 00-.222.686v1.407h-.5v-2.832h.488v.471c.22-.344.615-.536 1.021-.496zm3.269-1.103v3.956h-.491v-.449c-.236.318-.614.5-1.01.483a1.446 1.446 0 010-2.887c.383-.014.749.154.988.453v-1.556h.513zm-.508 2.544a.955.955 0 10-.95.997.932.932 0 00.95-.997zm3.146-1.335c0-.34-.28-.573-.764-.573a1.149 1.149 0 00-.954.424l-.385-.275c.336-.41.849-.633 1.378-.598.767 0 1.272.356 1.272.949 0 .891-.942.946-.942 1.646h-.534c-.008-.84.929-.959.929-1.573zm-1.014 2.438a.348.348 0 01.691 0 .348.348 0 01-.691 0z" fill="#263238"/><path fill-rule="evenodd" clip-rule="evenodd" d="M179.187 112.019c0 .123-15.002.212-33.496.212-18.495 0-33.496-.089-33.496-.212 0-.122 14.996-.212 33.496-.212 18.499 0 33.496.098 33.496.212zm-14.302 3.583c0 .114-8.594.212-19.199.212-10.604 0-19.203-.098-19.203-.212 0-.114 8.599-.212 19.203-.212 10.605 0 19.199.065 19.199.212z" fill="#000"/><path fill-rule="evenodd" clip-rule="evenodd" d="M158.83 70.094a10.21 10.21 0 10-15.84-2.42l-2.078 1.937.5 3.447-3.226-.882-2.599 2.425.517 3.426-3.222-.903-2.235 2.082.305 2.12-1.967-.551-1.297 1.212-.195 3.193 4.761 1.2 15.455-14.416a10.213 10.213 0 0011.121-1.87zm-1.526-12.554a2.93 2.93 0 11-4.283 3.999 2.93 2.93 0 014.283-4z" fill="#263238"/><path fill-rule="evenodd" clip-rule="evenodd" d="M157.304 57.54s-.191-.179-.581-.425a2.967 2.967 0 00-1.844-.402 2.82 2.82 0 103.078 3.298 2.905 2.905 0 00-.276-1.865c-.212-.424-.398-.594-.377-.61.021-.018.055.037.14.127.125.128.234.27.326.424a2.9 2.9 0 01.365 1.941 3.016 3.016 0 01-3.54 2.49 3.024 3.024 0 01-2.46-2.638 3.014 3.014 0 012.727-3.358 2.908 2.908 0 011.916.5c.155.1.298.218.424.352.102.11.127.161.102.165z" fill="#263238"/><path fill-rule="evenodd" clip-rule="evenodd" d="M158.83 70.094s-.046.051-.148.14l-.449.424c-.61.496-1.272.923-1.976 1.272a10.265 10.265 0 01-8.603.123h.085l-15.43 14.441-.042.047h-.064l-4.761-1.196-.098-.02v-.103c.059-.996.123-2.086.191-3.192v-.102l.034-.034 1.327-1.238.047-.047h.067l1.968.552-.157.135c-.098-.657-.199-1.378-.305-2.12v-.063l.046-.043 2.235-2.086.051-.05h.067l3.223.902-.157.14-.496-3.447v-.068l.051-.042.687-.644 1.912-1.781.051-.051h.068l3.226.903-.161.14-.496-3.447v-.064l.047-.046 2.077-1.938-.021.152a10.387 10.387 0 01-1.327-4.664 9.695 9.695 0 01.17-2.361c.138-.765.366-1.51.678-2.222a10.303 10.303 0 0118.686-.424 10.247 10.247 0 011.005 5.36 10.055 10.055 0 01-1.145 3.93c-.064.127-.127.246-.191.364l-.208.323c-.14.207-.254.424-.39.58-.276.331-.488.628-.695.849l-.509.564-.165.152s.046-.06.148-.17l.458-.487c.199-.212.424-.513.674-.848.127-.174.238-.377.373-.58.068-.107.136-.213.204-.327l.186-.36a10.12 10.12 0 10-18.257-8.714 10.04 10.04 0 00-.662 2.17 9.75 9.75 0 00-.161 2.307 10.19 10.19 0 001.302 4.537l.047.085-.072.068-2.074 1.938.038-.11c.164 1.13.33 2.28.496 3.45l.03.192-.191-.051-3.222-.904.123-.03-1.912 1.782-.683.631.038-.114.496 3.447.03.195-.191-.05-3.222-.908.118-.03c-.767.72-1.53 1.429-2.234 2.086l.042-.11c.102.725.204 1.446.301 2.12l.026.187-.183-.051-1.963-.552.115-.03-1.302 1.213.038-.08-.195 3.193-.089-.123 4.762 1.2-.106.03 15.476-14.391.038-.034h.047a10.205 10.205 0 008.505-.06c.702-.334 1.367-.74 1.984-1.212l.462-.386.157-.119z" fill="#263238"/><path fill-rule="evenodd" clip-rule="evenodd" d="M158.487 68.937a10.206 10.206 0 10-15.836-2.426l-2.074 1.934.496 3.451-3.222-.907-2.595 2.43.496 3.446-3.222-.903-2.235 2.086.301 2.12-1.963-.547-1.302 1.213-.195 3.193 4.762 1.195 15.455-14.415a10.201 10.201 0 0011.134-1.87zm-1.51-12.555a2.928 2.928 0 11-4.885 3.025 2.93 2.93 0 014.885-3.025z" fill="#1A4F8B"/><path fill-rule="evenodd" clip-rule="evenodd" d="M156.977 56.382s-.19-.178-.58-.424a2.906 2.906 0 00-1.841-.424 2.815 2.815 0 103.079 3.299 2.906 2.906 0 00-.28-1.866c-.212-.424-.395-.593-.378-.61.017-.017.056.038.145.127a2.3 2.3 0 01.322.424c.346.586.475 1.274.364 1.946a3.018 3.018 0 01-3.536 2.489 3.019 3.019 0 01-2.48-2.608 3.022 3.022 0 012.726-3.358 2.906 2.906 0 011.917.505 2.1 2.1 0 01.424.352c.089.093.127.144.118.148z" fill="#263238"/><path fill-rule="evenodd" clip-rule="evenodd" d="M158.487 68.937s-.047.05-.144.14l-.45.398c-.61.495-1.272.922-1.975 1.272a10.28 10.28 0 01-8.608.123h.085L131.97 85.311l-.047.043h-.059l-4.766-1.196-.093-.025v-.098c.059-.996.127-2.086.191-3.192v-.051l.034-.03 1.301-1.217.051-.046h.068l1.963.546-.157.14c-.093-.657-.199-1.378-.305-2.12v-.063l.051-.047 2.23-2.082.051-.05.072.02 3.223.904-.162.14-.496-3.439v-.068l.047-.046.691-.64 1.908-1.782.051-.05.072.02 3.222.904-.161.14c-.166-1.162-.332-2.311-.496-3.447v-.068l.051-.043 2.078-1.937-.026.152a10.4 10.4 0 01-1.327-4.664c-.037-.79.02-1.584.17-2.361.139-.764.367-1.51.678-2.222a10.282 10.282 0 0119.691 4.931 10.056 10.056 0 01-1.145 3.93l-.191.365-.208.323c-.14.207-.254.423-.385.58-.276.331-.488.628-.696.848l-.492.471a3.467 3.467 0 01-.165.157s.051-.064.153-.174l.453-.483c.2-.212.424-.513.674-.848.128-.17.242-.374.378-.581l.203-.323.183-.364c.626-1.211 1-2.537 1.098-3.897a10.117 10.117 0 00-19.352-4.829 9.977 9.977 0 00-.657 2.17 9.541 9.541 0 00-.161 2.307 10.176 10.176 0 001.298 4.537l.05.085-.072.068-2.077 1.938.038-.11c.167 1.13.332 2.279.496 3.446l.03.196-.187-.056-3.235-.907.119-.03-1.908 1.785-.691.64.038-.11c.174 1.183.339 2.353.496 3.448l.03.194-.187-.055-3.227-.903.123-.03-2.234 2.082.038-.106c.102.725.208 1.442.301 2.1l.025.19-.182-.05-1.963-.552.115-.03-1.298 1.213.038-.085c-.068 1.107-.135 2.2-.199 3.193l-.089-.123 4.761 1.204-.106.03 15.476-14.39.039-.035.046.021a10.254 10.254 0 008.506-.059 11.363 11.363 0 001.988-1.213l.458-.385.174-.123z" fill="#263238"/><path fill-rule="evenodd" clip-rule="evenodd" d="M157.55 68.14c.503-.54.963-1.118 1.374-1.73a8.58 8.58 0 001.047-2.35 8.951 8.951 0 00.292-3.391 8.83 8.83 0 00-1.344-3.867 8.942 8.942 0 00-3.468-3.138 8.263 8.263 0 00-2.413-.814 9.591 9.591 0 00-1.31-.153 10.23 10.23 0 00-1.344.068 8.814 8.814 0 00-7.661 7.145c-.084.44-.137.887-.162 1.335-.008.44.013.881.064 1.319.085.85.303 1.68.645 2.463a8.904 8.904 0 002.891 3.676 8.776 8.776 0 003.761 1.612 8.92 8.92 0 003.392-.055 8.668 8.668 0 002.417-.887 13.582 13.582 0 001.819-1.246s-.03.038-.102.102l-.318.288c-.17.156-.353.298-.547.424a6.231 6.231 0 01-.805.517c-.759.435-1.58.75-2.434.937a9.045 9.045 0 01-10.291-5.279 8.562 8.562 0 01-.67-2.544 8.223 8.223 0 01.081-2.692 9.048 9.048 0 017.878-7.348 8.446 8.446 0 012.726.093 8.627 8.627 0 012.476.848 9.112 9.112 0 013.541 3.236 9.097 9.097 0 011.026 7.411 8.493 8.493 0 01-1.107 2.366 5.77 5.77 0 01-.568.763 4.289 4.289 0 01-.466.517l-.31.297c-.068.047-.106.08-.11.076z" fill="#263238"/><path fill-rule="evenodd" clip-rule="evenodd" d="M157.139 60.893c-.022 0 .212-.22.496-.674.399-.647.569-1.41.483-2.166a3.31 3.31 0 00-1.819-2.616 3.273 3.273 0 00-1.891-.335 3.32 3.32 0 00-2.663 4.583c.234.545.605 1.02 1.077 1.378a3.39 3.39 0 003.604.28c.475-.25.691-.47.713-.45.021.021-.047.064-.153.161a2.564 2.564 0 01-.513.378 3.46 3.46 0 01-3.774-.2 3.528 3.528 0 01-1.399-3.51 3.524 3.524 0 013.078-2.866 3.493 3.493 0 012.031.368 3.553 3.553 0 011.374 1.273 3.479 3.479 0 01-.064 3.777c-.121.178-.263.34-.424.484-.093.097-.152.144-.156.135zm-26.496 23.744c-.047-.05 3.43-3.392 7.772-7.424 4.342-4.032 7.899-7.288 7.946-7.238.046.051-3.431 3.392-7.772 7.425-4.342 4.032-7.899 7.288-7.946 7.237z" fill="#263238"/><path fill-rule="evenodd" clip-rule="evenodd" d="M132.559 64.404l.144-.314.187.289c.152.23.367.412.619.525l.318.14-.288.191a1.437 1.437 0 00-.53.62l-.14.313-.191-.288a1.446 1.446 0 00-.619-.526l-.314-.14.289-.19c.232-.151.415-.366.525-.62zm-9.459-2.357l.08-.183.111.166a.81.81 0 00.36.305l.182.085-.169.11a.847.847 0 00-.305.356l-.081.187-.11-.17a.817.817 0 00-.361-.305l-.182-.085.165-.106a.873.873 0 00.31-.36zm29.794 16.124l.081-.182.11.17a.896.896 0 00.361.305l.182.08-.166.11a.815.815 0 00-.305.361l-.085.182-.11-.165a.845.845 0 00-.356-.31l-.187-.08.17-.11a.815.815 0 00.305-.36zm14.586-8.268l.14-.313.191.288c.151.231.366.413.619.526l.313.14-.288.19a1.436 1.436 0 00-.526.62l-.144.313-.186-.288a1.491 1.491 0 00-.619-.526l-.318-.14.288-.19c.232-.152.416-.367.53-.62zm-1.895-11.583l.237-.53.318.487c.256.388.616.695 1.039.886l.53.234-.488.318a2.486 2.486 0 00-.886 1.043l-.237.53-.318-.488a2.46 2.46 0 00-1.039-.886l-.53-.238.488-.318a2.46 2.46 0 00.886-1.038zm-35.964-3.57l.237-.53.318.483a2.43 2.43 0 001.039.886l.53.238-.483.318c-.39.252-.698.613-.886 1.038l-.238.53-.318-.483a2.413 2.413 0 00-1.043-.886l-.526-.238.484-.318c.389-.254.696-.614.886-1.038z" fill="#1A4F8B"/><path fill-rule="evenodd" clip-rule="evenodd" d="M174.637 135.483s.136 0 .399-.034a2.53 2.53 0 00.491-.055l.31-.051.352-.093a5.699 5.699 0 001.73-.771 6.094 6.094 0 002.459-3.223 6.073 6.073 0 00.28-1.67v-.912l-.026-.466c0-.157-.046-.314-.072-.471a6.199 6.199 0 00-.674-1.87 6.014 6.014 0 00-3.337-2.747 6.75 6.75 0 00-2.378-.314h-2.57l-54.861.034a5.993 5.993 0 00-3.647 1.242c-.51.399-.956.873-1.322 1.408a5.985 5.985 0 00-.793 1.747 6.544 6.544 0 00-.183.941c0 .318-.042.636-.034.962-.018.636.059 1.27.229 1.883a6.26 6.26 0 00.785 1.696c.356.513.784.971 1.272 1.361.485.385 1.029.69 1.611.903.286.107.579.193.878.259.301.056.605.091.911.106 1.226.029 2.464 0 3.676 0h7.128l24.664.021 16.629.038 4.52.021h1.577-1.577l-4.52.021-16.629.034-24.664.026H116.43a7.264 7.264 0 01-.941-.106 6.772 6.772 0 01-.912-.272 5.963 5.963 0 01-1.666-.932 6.108 6.108 0 01-2.12-3.176 6.668 6.668 0 01-.237-1.942c0-.322 0-.657.034-.984.04-.329.104-.655.19-.975a6.32 6.32 0 01.823-1.815 6.407 6.407 0 011.374-1.458 6.188 6.188 0 013.778-1.272l54.861.029h2.569a7.122 7.122 0 012.426.327 6.173 6.173 0 013.392 2.82 6.29 6.29 0 01.682 1.912l.072.479v1.395a6.227 6.227 0 01-.292 1.696 6.396 6.396 0 01-.674 1.408 6.019 6.019 0 01-1.841 1.84 5.839 5.839 0 01-1.755.763l-.356.085-.314.046c-.162.03-.327.045-.492.047l-.394.059z" fill="#263238"/><path fill-rule="evenodd" clip-rule="evenodd" d="M110.651 144.585v-.291c0-1.68.594-3.114 1.782-4.302 1.188-1.188 2.622-1.782 4.303-1.782h57.901c1.68 0 3.114.594 4.302 1.782 1.188 1.188 1.782 2.622 1.782 4.302v.581c0 1.68-.594 3.114-1.782 4.302-1.188 1.188-2.622 1.782-4.302 1.782h-57.901c-1.681 0-3.115-.594-4.303-1.782-1.188-1.188-1.782-2.622-1.782-4.302v-.29z" fill="#1A4F8B"/><path fill-rule="evenodd" clip-rule="evenodd" d="M124.72 131.65a2.635 2.635 0 010-.377c0-.263 0-.606-.022-1.03 0-.908-.025-2.163-.046-3.676l.089.084-7.577.026.11-.11v5.075l-.102-.102 5.432.051 1.569.026h.576c-.177.02-.356.028-.534.025l-1.548.025-5.512.051h-.131v-5.143c-.098.098.136-.136.11-.114l7.577.025h.089v.089a851.17 851.17 0 00-.046 3.731c0 .424 0 .755-.026 1.014.005.11.002.221-.008.33z" fill="#263238"/><path fill-rule="evenodd" clip-rule="evenodd" d="M124.719 126.567a9.989 9.989 0 01-1.06 1.017c-.669.611-1.611 1.438-2.654 2.345h-.165l-.026-.021-.05-.043-.098-.084-.191-.166-.373-.326-.708-.624-1.187-1.06a9.886 9.886 0 01-1.06-1.017c.405.262.789.556 1.149.878l1.217 1.026.716.61.378.322.195.17.093.085.051.038.025.021h-.131c1.047-.903 2.001-1.696 2.701-2.294a9.266 9.266 0 011.179-.877h-.001z" fill="#263238"/><path fill-rule="evenodd" clip-rule="evenodd" d="M119.878 128.933a8.282 8.282 0 01-1.272 1.437 8.578 8.578 0 01-1.446 1.272 8.562 8.562 0 011.272-1.437 8.667 8.667 0 011.446-1.272zm4.842 2.717a8.213 8.213 0 01-1.361-1.365 8.619 8.619 0 01-1.196-1.509c.504.402.96.86 1.361 1.365.455.456.856.962 1.196 1.509zm4.575-1.526v.17h-1.76v-2.544h1.696v.169h-1.518v1.005h1.357v.166h-1.357v1.043l1.582-.009zm3.743-.941v1.111h-.182v-1.098c0-.424-.225-.658-.593-.658a.675.675 0 00-.519.211.674.674 0 00-.177.531v1.014h-.182v-1.098c0-.424-.225-.658-.594-.658a.672.672 0 00-.695.742v1.014h-.182v-1.904h.173v.424a.756.756 0 01.73-.424.674.674 0 01.695.458.8.8 0 01.768-.458.71.71 0 01.758.793zm2.12-.098v1.209h-.173v-.34a.74.74 0 01-.687.352c-.424 0-.683-.216-.683-.542 0-.327.182-.53.708-.53h.653v-.153a.496.496 0 00-.564-.543 1 1 0 00-.657.238l-.089-.132c.213-.176.482-.271.759-.267a.644.644 0 01.733.708zm-.182.645v-.356h-.649c-.394 0-.53.165-.53.381s.191.403.526.403a.654.654 0 00.653-.428zm.873-1.883a.213.213 0 01.212-.212c.118 0 .212.095.212.212a.211.211 0 01-.211.212.213.213 0 01-.213-.212zm.056.543h.424v1.904h-.388l-.036-1.904zm.949-.801h.424v2.705h-.424v-2.705z" fill="#263238"/><path fill-rule="evenodd" clip-rule="evenodd" d="M131.724 146.295l-.687-.962a2.18 2.18 0 01-.28 0h-.822v.941h-.191v-2.866h1.03c.721 0 1.158.36 1.158.971.02.422-.263.8-.674.899l.721 1.005-.255.012zm-.967-1.123c.615 0 .946-.289.946-.78 0-.492-.331-.785-.946-.785h-.822v1.565h.822zm3.672.102h-1.844a.847.847 0 00.907.848c.262.009.514-.1.687-.297l.119.135a1.02 1.02 0 01-.81.348 1.05 1.05 0 01-1.103-1.09 1.027 1.027 0 112.048 0s-.004.034-.004.056zm-1.84-.162h1.645a.822.822 0 00-1.645 0zm2.167.925l.093-.166c.222.169.493.26.772.259.453 0 .636-.157.636-.403 0-.623-1.425-.161-1.425-1.005 0-.322.271-.585.814-.585.261-.005.518.068.738.208l-.098.165a1.11 1.11 0 00-.644-.195c-.424 0-.602.174-.602.403 0 .645 1.42.191 1.42 1.009 0 .348-.301.585-.848.585a1.334 1.334 0 01-.856-.275zm4.091-.763h-1.844a.847.847 0 00.907.848c.262.009.514-.1.687-.297l.119.135a1.03 1.03 0 01-.81.348 1.058 1.058 0 01-1.107-1.09 1.026 1.026 0 011.031-1.085 1.014 1.014 0 011.021 1.077s-.004.042-.004.064zm-1.84-.162h1.641a.822.822 0 00-1.641 0zm3.545 1.048a.656.656 0 01-.424.152.53.53 0 01-.581-.585v-1.399h-.395v-.178h.395v-.466h.203v.466h.683v.178h-.683v1.382c0 .276.136.424.399.424a.49.49 0 00.335-.118l.068.144zm3.884-1.768c0 .602-.424.962-1.158.962h-.814v.941h-.212v-2.887h1.035c.712 0 1.149.373 1.149.984zm-.212 0c0-.501-.331-.785-.946-.785h-.814v1.561h.823c.606 0 .937-.285.937-.776zm2.382.542v1.361h-.199v-.381a.82.82 0 01-.772.398c-.479 0-.771-.246-.771-.61 0-.365.203-.602.801-.602h.734v-.17a.56.56 0 00-.636-.615 1.117 1.117 0 00-.742.272l-.102-.149a1.33 1.33 0 01.848-.301.728.728 0 01.839.797zm-.207.73v-.403h-.73c-.445 0-.602.186-.602.424 0 .237.217.449.598.449a.73.73 0 00.734-.47zm.729.373l.093-.166c.221.171.493.262.772.259.454 0 .632-.157.632-.403 0-.623-1.421-.161-1.421-1.005 0-.322.272-.585.814-.585.26-.005.516.067.734.208l-.093.165a1.116 1.116 0 00-.645-.195c-.424 0-.606.174-.606.403 0 .645 1.424.191 1.424 1.009 0 .348-.301.585-.848.585a1.33 1.33 0 01-.856-.275zm1.971 0l.094-.166c.222.169.493.26.771.259.454 0 .636-.157.636-.403 0-.623-1.424-.161-1.424-1.005 0-.322.271-.585.814-.585.261-.005.518.068.738.208l-.098.165a1.11 1.11 0 00-.644-.195c-.424 0-.602.174-.602.403 0 .645 1.42.191 1.42 1.009 0 .348-.301.585-.848.585a1.339 1.339 0 01-.857-.275zm5.305-1.887l-.814 2.145h-.195l-.721-1.861-.729 1.861h-.187l-.814-2.145h.195l.717 1.916.733-1.916h.174l.729 1.912.721-1.912h.191zm.182 1.073a1.073 1.073 0 111.069 1.089 1.037 1.037 0 01-1.069-1.089zm1.934 0a.848.848 0 10-1.692.11.848.848 0 001.692-.11zm1.861-1.086v.2h-.051c-.475 0-.759.318-.759.848v1.115h-.203v-2.146h.195v.471a.815.815 0 01.818-.488zm2.451-.89v3.048h-.2v-.504a.952.952 0 01-.877.521 1.09 1.09 0 010-2.175.959.959 0 01.873.513v-1.403h.204zm-.204 1.976a.848.848 0 10-1.692.11.848.848 0 001.692-.11z" fill="#fff"/><path fill-rule="evenodd" clip-rule="evenodd" d="M188.188 35.848c0 .114-19.601.212-43.778.212-24.176 0-43.778-.098-43.778-.212 0-.114 19.597-.212 43.778-.212 24.181 0 43.778.097 43.778.212zm-82.612-3.578a1.064 1.064 0 11-2.128-.01 1.064 1.064 0 012.128.01zm3.078 0a1.064 1.064 0 11-2.128-.01 1.064 1.064 0 012.128.01zm3.061 0a1.063 1.063 0 01-1.822.741 1.063 1.063 0 111.822-.742z" fill="#263238"/><path fill-rule="evenodd" clip-rule="evenodd" d="M188.345 161.852l-.102-132.873.102.102h-87.679l.11-.11c0 50.142 0 96.37-.025 132.873l-.085-.085 87.687.085-87.687.089h-.089v-.089c0-36.503 0-82.731-.021-132.874v-.11h87.899v.102c-.068 78.219-.11 131.987-.11 132.89z" fill="#263238"/><path fill-rule="evenodd" clip-rule="evenodd" d="M186.742 197.68a1.1 1.1 0 00-.072-.174 12.247 12.247 0 01-.916-2.484 17.573 17.573 0 01.056-7.675c.364-1.748.84-3.472 1.424-5.16.602-1.827 1.306-3.769 1.874-5.868.648-2.192.961-4.469.929-6.754-.089-2.388-.793-4.77-1.573-7.145-.78-2.374-1.577-4.698-1.819-7.034a10.733 10.733 0 011.272-6.496c1.03-1.895 2.323-3.519 3.294-5.198a18.144 18.144 0 001.98-4.995c.582-2.543.624-5.181.123-7.742a14.549 14.549 0 00-.805-2.735c.01.062.025.123.046.183.043.131.094.305.166.525.202.673.369 1.355.5 2.044a18.854 18.854 0 01-.199 7.683 17.924 17.924 0 01-1.989 4.935c-.966 1.658-2.264 3.274-3.315 5.19a10.915 10.915 0 00-1.328 6.631c.242 2.375 1.048 4.715 1.824 7.085.776 2.371 1.475 4.732 1.564 7.077a22.573 22.573 0 01-.903 6.682c-.564 2.091-1.272 4.032-1.853 5.868a40.85 40.85 0 00-1.399 5.19c-.653 3.231-.466 5.962.021 7.734.183.682.427 1.346.729 1.984l.259.488a.935.935 0 00.11.161z" fill="#263238"/><path fill-rule="evenodd" clip-rule="evenodd" d="M189.914 145.333s1.967-6.292-1.565-9.977c-.055-.061-.141-.085-.221-.061a.217.217 0 00-.152.171c-.186 1.039-.424 4.202 1.938 9.867z" fill="#1A4F8B"/><path fill-rule="evenodd" clip-rule="evenodd" d="M188.735 137.472c.004.391.048.78.132 1.162.127.801.279 1.738.449 2.777.17 1.039.314 1.976.424 2.773.031.389.101.774.208 1.149.034-.39.021-.783-.038-1.17a41.49 41.49 0 00-.369-2.794 49.599 49.599 0 00-.522-2.765 5.334 5.334 0 00-.284-1.132z" fill="#263238"/><path fill-rule="evenodd" clip-rule="evenodd" d="M187.603 160.169s-1.204-6.479-6.046-8.086a.223.223 0 00-.222.051.222.222 0 00-.058.22c.318 1.005 1.59 3.914 6.326 7.815z" fill="#1A4F8B"/><path fill-rule="evenodd" clip-rule="evenodd" d="M182.876 153.758c.186.342.406.664.657.962l1.696 2.243c.631.848 1.2 1.603 1.696 2.247a6.9 6.9 0 00.721.921 5.086 5.086 0 00-.577-1.018 41.23 41.23 0 00-1.637-2.298 45.499 45.499 0 00-1.751-2.201 5.349 5.349 0 00-.805-.856z" fill="#263238"/><path fill-rule="evenodd" clip-rule="evenodd" d="M188.909 176.429s.734-6.551-3.434-9.493a.22.22 0 00-.348.178c.013 1.056.386 4.206 3.782 9.315z" fill="#1A4F8B"/><path fill-rule="evenodd" clip-rule="evenodd" d="M186.251 168.92c.076.383.194.757.351 1.115.28.759.607 1.654.967 2.637.361.984.687 1.879.963 2.642.106.374.248.738.424 1.085a4.748 4.748 0 00-.259-1.14 39.794 39.794 0 00-.895-2.671 56.45 56.45 0 00-1.038-2.616 5.476 5.476 0 00-.513-1.052z" fill="#263238"/><path fill-rule="evenodd" clip-rule="evenodd" d="M185.263 192.787s.496-6.576-3.774-9.366a.215.215 0 00-.339.191c.051 1.051.534 4.189 4.113 9.175z" fill="#1A4F8B"/><path fill-rule="evenodd" clip-rule="evenodd" d="M182.32 185.384c.097.379.229.748.394 1.102.306.751.666 1.629 1.065 2.6.398.97.75 1.857 1.055 2.603.117.372.272.732.463 1.073a5.14 5.14 0 00-.301-1.132 40.66 40.66 0 00-.993-2.638 56.211 56.211 0 00-1.132-2.578 4.93 4.93 0 00-.551-1.03z" fill="#263238"/><path fill-rule="evenodd" clip-rule="evenodd" d="M192.742 139.804s5.843-3.053 5.957-8.154a.22.22 0 00-.343-.186c-.869.602-3.274 2.667-5.614 8.34z" fill="#1A4F8B"/><path fill-rule="evenodd" clip-rule="evenodd" d="M197.487 133.406a5.248 5.248 0 00-.73.911l-1.649 2.277c-.615.848-1.175 1.62-1.654 2.273a7.18 7.18 0 00-.665.958c.301-.249.572-.534.805-.848a33.857 33.857 0 001.696-2.239c.623-.894 1.204-1.696 1.594-2.323.236-.314.438-.653.603-1.009z" fill="#263238"/><path fill-rule="evenodd" clip-rule="evenodd" d="M186.467 153.317s6.029-2.701 6.453-7.789a.217.217 0 00-.331-.208c-.915.56-3.443 2.476-6.122 7.997z" fill="#1A4F8B"/><path fill-rule="evenodd" clip-rule="evenodd" d="M191.589 147.224c-.288.255-.55.54-.78.848l-1.785 2.171-1.786 2.171a6.487 6.487 0 00-.725.916c.314-.233.598-.502.848-.802a41.846 41.846 0 001.849-2.12 52.55 52.55 0 001.73-2.222c.254-.294.471-.617.649-.962z" fill="#263238"/><path fill-rule="evenodd" clip-rule="evenodd" d="M189.927 168.386s4.134-5.135 2.196-9.854a.22.22 0 00-.39-.038c-.556.899-1.929 3.761-1.806 9.892z" fill="#1A4F8B"/><path fill-rule="evenodd" clip-rule="evenodd" d="M191.712 160.622c-.139.365-.24.743-.301 1.128-.174.793-.374 1.722-.598 2.748l-.602 2.743a6.468 6.468 0 00-.229 1.145c.177-.348.31-.717.394-1.098.204-.696.449-1.662.678-2.735.229-1.073.424-2.057.526-2.769.087-.381.131-.771.132-1.162z" fill="#263238"/><path fill-rule="evenodd" clip-rule="evenodd" d="M185.835 186.122s5.97-2.79 6.309-7.882a.216.216 0 00-.331-.2c-.894.56-3.387 2.519-5.978 8.082z" fill="#1A4F8B"/><path fill-rule="evenodd" clip-rule="evenodd" d="M190.855 179.94a5.88 5.88 0 00-.767.878l-1.743 2.204c-.657.823-1.246 1.565-1.755 2.197a6.348 6.348 0 00-.704.928c.314-.236.599-.509.848-.814a39.456 39.456 0 001.81-2.158 69.772 69.772 0 001.696-2.251c.241-.305.447-.635.615-.984zm-16.913-19.733v.568c.021.399.042.933.072 1.599.076 1.407.186 3.366.314 5.711.424 2.383 1.641 5.028 3.273 7.594 1.196 1.891 2.451 3.612 3.536 5.211a36.607 36.607 0 012.646 4.38c.514 1.03.93 2.106 1.242 3.213.106.395.183.7.229.912.018.109.048.216.089.318a2.65 2.65 0 00-.042-.331c-.03-.212-.093-.525-.183-.924a17.155 17.155 0 00-1.178-3.265 34.47 34.47 0 00-2.616-4.431c-1.073-1.611-2.324-3.332-3.515-5.215-1.62-2.544-2.828-5.156-3.274-7.505-.165-2.344-.305-4.299-.402-5.702-.056-.666-.098-1.2-.128-1.599 0-.165-.033-.305-.042-.424a.689.689 0 00-.021-.11z" fill="#263238"/><path fill-rule="evenodd" clip-rule="evenodd" d="M177.495 175.208s-2.544-6.089.653-10.078a.215.215 0 01.381.076c.285 1.009.823 4.138-1.034 10.002z" fill="#1A4F8B"/><path fill-rule="evenodd" clip-rule="evenodd" d="M177.957 167.245a5.253 5.253 0 00-.199 1.154 56.776 56.776 0 00-.272 2.802 40.64 40.64 0 00-.114 2.816c-.026.39-.001.782.072 1.166.068-.384.102-.773.102-1.162.055-.81.119-1.756.186-2.803.068-1.047.14-1.997.2-2.807a5.9 5.9 0 00.025-1.166z" fill="#263238"/><path fill-rule="evenodd" clip-rule="evenodd" d="M177.495 175.208s-2.544-6.089.653-10.078a.215.215 0 01.381.076c.285 1.009.823 4.138-1.034 10.002z" fill="#000" opacity=".3"/><path fill-rule="evenodd" clip-rule="evenodd" d="M185.33 189.87s-2.026-6.275 1.468-9.994a.22.22 0 01.373.106c.199 1.039.466 4.202-1.841 9.888z" fill="#1A4F8B"/><path fill-rule="evenodd" clip-rule="evenodd" d="M186.433 181.992a5.265 5.265 0 00-.293 1.132 60.196 60.196 0 00-.496 2.769 39.561 39.561 0 00-.343 2.798 4.771 4.771 0 000 1.17c.097-.376.163-.761.195-1.149.119-.801.258-1.742.424-2.781.165-1.039.301-1.976.424-2.777a5.73 5.73 0 00.089-1.162z" fill="#263238"/><path fill-rule="evenodd" clip-rule="evenodd" d="M185.33 189.87s-2.026-6.275 1.468-9.994a.22.22 0 01.373.106c.199 1.039.466 4.202-1.841 9.888z" fill="#000" opacity=".3"/><path fill-rule="evenodd" clip-rule="evenodd" d="M174.264 167.758s-5.402-3.782-4.855-8.853a.218.218 0 01.361-.144c.797.708 2.917 3.07 4.494 8.997z" fill="#1A4F8B"/><path fill-rule="evenodd" clip-rule="evenodd" d="M174.264 167.758s-5.402-3.782-4.855-8.853a.218.218 0 01.361-.144c.797.708 2.917 3.07 4.494 8.997z" fill="#000" opacity=".3"/><path fill-rule="evenodd" clip-rule="evenodd" d="M170.397 160.792c.11.375.26.736.45 1.077a54.38 54.38 0 001.272 2.51 38.777 38.777 0 001.412 2.438c.191.342.421.661.686.95a6.141 6.141 0 00-.534-1.039c-.39-.708-.848-1.543-1.348-2.463l-1.34-2.472a5.76 5.76 0 00-.598-1.001z" fill="#263238"/><path fill-rule="evenodd" clip-rule="evenodd" d="M183.168 183.65s-6.513-1.018-8.255-5.809a.215.215 0 01.258-.288c1.001.288 3.944 1.471 7.997 6.097z" fill="#1A4F8B"/><path fill-rule="evenodd" clip-rule="evenodd" d="M183.168 183.65s-6.513-1.018-8.255-5.809a.215.215 0 01.258-.288c1.001.288 3.944 1.471 7.997 6.097z" fill="#000" opacity=".3"/><path fill-rule="evenodd" clip-rule="evenodd" d="M176.605 179.109c.262.29.556.549.877.771.564.45 1.357 1.052 2.252 1.696.894.645 1.73 1.192 2.344 1.565.322.225.669.41 1.035.551a6.145 6.145 0 00-.941-.695l-2.294-1.62-2.29-1.632a5.96 5.96 0 00-.983-.636z" fill="#263238"/><path fill-rule="evenodd" clip-rule="evenodd" d="M190.859 195.636l-1.869 12.254-7.459-.013-2.514-12.241h11.842z" fill="#455A64"/><path fill-rule="evenodd" clip-rule="evenodd" d="M184.05 199.571c.203-.306.321-.66.343-1.026a1.106 1.106 0 00-.504-1.052 1.206 1.206 0 00-1.251.102c-.37.272-.625.673-.712 1.124a4.745 4.745 0 00-.094 1.386c.024.484.125.961.301 1.412.179.474.47.898.848 1.234.4.354.905.566 1.438.602a2.638 2.638 0 001.492-.424 4.524 4.524 0 001.115-1.009 2.45 2.45 0 00.564-1.344 1.572 1.572 0 00-.53-1.302 1.222 1.222 0 00-1.323-.08 1.434 1.434 0 00-.763 1 1.914 1.914 0 00.946 1.938c.55.3 1.189.393 1.802.263a4.07 4.07 0 001.272-.505c.25-.146.49-.307.721-.483.084-.057.161-.124.229-.199a2.64 2.64 0 00-.255.165c-.165.106-.424.271-.733.449a4.161 4.161 0 01-1.272.458c-.58.109-1.18.013-1.696-.271a1.77 1.77 0 01-.848-1.781c.081-.379.331-.701.678-.873.355-.2.795-.174 1.124.068.321.288.488.71.453 1.14a2.251 2.251 0 01-.53 1.234 4.397 4.397 0 01-1.06.958 2.45 2.45 0 01-1.378.403 2.25 2.25 0 01-1.314-.551 2.977 2.977 0 01-.81-1.153 4.335 4.335 0 01-.292-1.353 4.582 4.582 0 01.08-1.327c.074-.408.3-.773.632-1.022a1.04 1.04 0 011.064-.106.958.958 0 01.424.903 1.915 1.915 0 01-.309.95 2.752 2.752 0 01-1.391 1.043 3.05 3.05 0 01-1.323.157 3.403 3.403 0 01-1.102-.327l.059.047a2.6 2.6 0 001.047.36c.462.063.932.018 1.374-.131a2.869 2.869 0 001.475-1.069" fill="#263238"/></g></svg>